<?xml version="1.0" encoding="UTF-8" standalone="no"?>
<svg xmlns="http://www.w3.org/2000/svg" xmlns:xlink="http://www.w3.org/1999/xlink" xmlns:serif="http://www.serif.com/" width="100%" height="100%" viewBox="0 0 6634 5546" version="1.1" xml:space="preserve" style="fill-rule:evenodd;clip-rule:evenodd;stroke-linejoin:round;stroke-miterlimit:2;">
    <g transform="matrix(4.16667,0,0,4.16667,0,0)">
        <path d="M1091.67,20.153C1095.07,13.373 1107.49,-2.595 1135.33,0.505C1151.91,2.347 1169.23,12.147 1176.49,25.661C1180.22,32.6 1179.16,44.38 1175.12,52.456L1151.38,94.739C1151.38,94.739 1113.59,87.359 1091.86,86.732C1070.13,86.104 1052.64,87.45 1052.64,87.45" style="fill:rgb(69,65,63);fill-rule:nonzero;"></path>
        <path d="M1533.34,748.001C1496.52,690.751 1444.67,644.995 1383.4,615.682L1370.88,609.695L1376.65,597.08C1396.52,553.615 1406.59,507.294 1406.59,459.403L1406.59,453.884C1406.59,277.008 1269.33,123.501 1091.54,123.501C1090.14,123.493 768.929,123.513 641.781,123.521C609.819,122.445 588.284,129.174 573.96,156.941C547.906,204.548 481.954,326.343 481.954,326.343L1041.4,326.343C1111.36,326.343 1168.28,383.263 1168.28,453.227C1168.28,523.19 1111.36,580.109 1041.4,580.109L387.455,580.109L277.37,784.248L1191.76,784.248C1288.1,784.248 1366.48,862.629 1366.48,958.97C1366.48,1055.32 1288.1,1133.7 1191.75,1133.7L705.382,1133.7L599.052,1331L1226.07,1331C1427.36,1331 1591.12,1167.24 1591.12,965.943L1591.12,945.166C1591.12,874.953 1571.14,806.773 1533.34,748.001Z" style="fill:rgb(69,65,63);fill-rule:nonzero;"></path>
        <path d="M904.582,380.931L822.479,534.305L915.686,534.305L998.799,380.931L904.582,380.931Z" style="fill:rgb(69,65,63);fill-rule:nonzero;"></path>
        <path d="M696.714,837.144C672.421,883.119 614.096,997.387 603.974,1012.57C589.022,1035 566.698,1084.66 406.239,1084.66C333.482,1086.49 259.88,1079.83 188.69,1073.36C170.635,1071.72 151.966,1070.03 133.585,1068.5C101.595,1065.83 73.286,1064.42 47.045,1064.2C21.449,1063.95 4.89,1078.81 1.263,1104.89C-0.137,1115 -0.375,1124.71 0.559,1133.76C3.978,1166.96 17.198,1197.14 40.975,1226.05C58.632,1247.51 78.695,1259.06 102.309,1261.37L106.377,1261.77C163.868,1267.5 460.109,1256.14 514.776,1243.69C610.433,1220.35 746.32,914.66 746.32,914.66L783.877,837.144L696.714,837.144Z" style="fill:rgb(69,65,63);fill-rule:nonzero;"></path>
    </g>
</svg>
