<?xml version="1.0" encoding="UTF-8" standalone="no"?>
<svg xmlns="http://www.w3.org/2000/svg" xmlns:xlink="http://www.w3.org/1999/xlink" xmlns:serif="http://www.serif.com/" width="100%" height="100%" viewBox="0 0 228 59" version="1.1" xml:space="preserve" style="fill-rule:evenodd;clip-rule:evenodd;">
    <g id="ArtBoard1" transform="matrix(1.42,0,0,1,1.07045,0.87222)">
        <g transform="matrix(0.733251,0,0,1,-1.11022e-16,0)">
            <rect x="0" y="0" width="217" height="58" style="fill:none;"></rect>
        </g>
        <g transform="matrix(0.675648,0,0,1,0,0)">
            <g>
                <g transform="matrix(1,0,0,1,19.4956,14.3277)">
                    <path d="M12.326,7.415C12.686,7.415 12.977,7.704 12.977,8.062C12.977,8.419 12.686,8.709 12.326,8.709C11.967,8.709 11.676,8.419 11.676,8.062C11.676,7.704 11.967,7.415 12.326,7.415ZM8.783,17.016C8.995,17.059 9.189,17.104 9.368,17.153C10.37,17.273 11.5,17.514 12.663,17.882C13.583,18.173 14.421,18.51 15.151,18.867C15.167,18.717 15.18,18.566 15.18,18.409C15.18,16.087 13.538,14.552 10.253,13.909L8.052,13.484L8.052,9.278C8.321,9.492 8.526,9.586 8.488,9.605C10.087,10.808 12.855,11.351 12.855,11.39C13.245,11.442 13.518,11.459 13.708,11.459C14.09,11.459 14.142,11.39 14.142,11.39L15.623,10.148L14.805,8.479C13.674,6.112 11.061,4.754 11.022,4.716C10.372,4.106 8.152,3.834 8.052,3.787L8.052,0.45C8.052,0.21 7.857,0.016 7.616,0.016C7.375,0.016 7.18,0.21 7.18,0.45L7.18,3.721C7.009,3.714 6.842,3.71 6.679,3.71C3.432,3.71 1.817,5.135 1.009,6.561C0.203,7.984 0.201,9.407 0.184,9.411L4.628,11.079C3.264,9.256 4.628,8.169 4.628,8.169C5.082,7.864 5.508,7.762 5.878,7.762C6.578,7.762 7.077,8.126 7.18,8.171L7.18,13.315L6.19,13.123C5.961,13.076 5.762,13.022 5.576,12.965C4.725,12.83 3.805,12.615 2.861,12.317C1.833,11.993 0.902,11.609 0.116,11.205C0.078,11.423 0.052,11.645 0.052,11.873C0.052,14.481 2.083,15.695 4.806,16.23L7.18,16.699L7.18,19.22L6.19,19.029C5.961,18.981 5.762,18.927 5.576,18.87C4.725,18.734 3.805,18.52 2.861,18.222C1.833,17.897 0.902,17.514 0.116,17.11C0.078,17.328 0.052,17.549 0.052,17.778C0.052,20.385 2.083,21.599 4.806,22.135L7.18,22.604L7.18,27.121C7.18,27.361 7.375,27.555 7.616,27.555C7.857,27.555 8.052,27.361 8.052,27.121L8.052,22.776L8.783,22.921C8.995,22.964 9.189,23.009 9.368,23.058C10.37,23.178 11.5,23.419 12.663,23.787C13.583,24.077 14.421,24.415 15.151,24.772C15.167,24.622 15.18,24.47 15.18,24.313C15.18,21.993 13.538,20.456 10.253,19.814L8.052,19.388L8.052,16.872L8.783,17.016Z" style="fill:rgb(142,210,204);fill-rule:nonzero;"></path>
                </g>
                <g transform="matrix(1,0,0,1,5.81818,1.63998)">
                    <path d="M44.19,35.993C43.594,36.969 42.929,37.899 42.202,38.776C42.929,37.899 43.594,36.969 44.19,35.993C45.977,33.064 47.145,29.719 47.51,26.137C47.591,25.341 47.633,24.534 47.633,23.716C47.633,22.082 47.467,20.486 47.15,18.945C46.912,17.789 46.59,16.663 46.19,15.576C46.59,16.663 46.912,17.789 47.15,18.945C47.467,20.486 47.633,22.082 47.633,23.716C47.633,24.534 47.591,25.341 47.51,26.137C47.145,29.719 45.977,33.064 44.19,35.993ZM38.08,42.689C37.469,43.143 36.836,43.569 36.182,43.964C36.836,43.569 37.469,43.143 38.08,42.689C38.69,42.234 39.278,41.751 39.841,41.242C39.278,41.751 38.69,42.234 38.08,42.689ZM28.643,46.911C27.095,47.227 25.492,47.392 23.85,47.392C25.492,47.392 27.095,47.227 28.643,46.911C30.192,46.596 31.685,46.131 33.108,45.532C31.685,46.131 30.192,46.596 28.643,46.911ZM4.792,9.551C4.107,10.462 3.487,11.424 2.938,12.431C3.487,11.424 4.107,10.462 4.792,9.551ZM7.859,6.191C7.296,6.7 6.758,7.236 6.246,7.797C6.758,7.236 7.296,6.7 7.859,6.191ZM17.907,0.786C18.666,0.591 19.441,0.433 20.228,0.313C19.441,0.433 18.666,0.591 17.907,0.786C14.487,1.662 11.365,3.276 8.722,5.447C11.365,3.276 14.487,1.662 17.907,0.786ZM29.794,0.786C29.034,0.591 28.259,0.433 27.472,0.313C28.259,0.433 29.034,0.591 29.794,0.786ZM36.183,3.468C35.529,3.073 34.854,2.708 34.161,2.375C34.854,2.708 35.529,3.073 36.183,3.468ZM38.978,5.447C38.391,4.964 37.78,4.509 37.147,4.084C37.78,4.509 38.391,4.964 38.978,5.447ZM42.908,9.551C41.995,8.335 40.968,7.21 39.841,6.191C40.968,7.21 41.995,8.335 42.908,9.551ZM43.271,10.68C43.903,11.611 44.469,12.589 44.962,13.608C44.469,12.589 43.903,11.611 43.271,10.68ZM3.256,12.603C2.174,14.585 1.373,16.74 0.905,19.017C0.671,20.155 0.52,21.324 0.46,22.516C0.52,21.324 0.671,20.155 0.905,19.017C1.373,16.74 2.174,14.585 3.256,12.603C3.977,11.281 4.823,10.037 5.778,8.886C4.823,10.037 3.977,11.281 3.256,12.603ZM10.756,4.382C10.133,4.801 9.531,5.249 8.952,5.725C9.531,5.249 10.133,4.801 10.756,4.382C13.247,2.706 16.081,1.495 19.13,0.874C16.081,1.495 13.247,2.706 10.756,4.382ZM32.967,2.233C33.667,2.528 34.35,2.856 35.014,3.215C34.35,2.856 33.667,2.528 32.967,2.233ZM47.244,23.716C47.244,29.937 44.811,35.785 40.392,40.184C35.973,44.582 30.099,47.005 23.85,47.005C17.602,47.005 11.727,44.582 7.309,40.184C2.89,35.785 0.457,29.937 0.457,23.716C0.457,17.496 2.89,11.648 7.309,7.249C11.727,2.85 17.602,0.428 23.85,0.428C30.099,0.428 35.973,2.85 40.392,7.249C44.811,11.648 47.244,17.496 47.244,23.716ZM40.412,7.23C39.352,6.175 38.191,5.22 36.945,4.382C38.191,5.22 39.352,6.175 40.412,7.23C41.206,8.021 41.944,8.869 42.618,9.766C41.944,8.869 41.206,8.021 40.412,7.23ZM17.997,46.298C19.868,46.777 21.829,47.032 23.85,47.032C21.829,47.032 19.868,46.777 17.997,46.298ZM44.763,12.431C44.396,11.76 43.998,11.109 43.571,10.479C43.998,11.109 44.396,11.76 44.763,12.431ZM40.687,6.955C36.19,2.479 30.21,0.013 23.85,0.013C17.49,0.013 11.511,2.479 7.014,6.955C2.517,11.432 0.04,17.385 0.04,23.716C0.04,30.048 2.517,36 7.014,40.477C11.504,44.947 17.473,47.412 23.823,47.42L23.878,47.42C30.227,47.412 36.196,44.947 40.687,40.477C45.184,36 47.66,30.048 47.66,23.716C47.66,17.385 45.184,11.432 40.687,6.955Z" style="fill:rgb(113,170,164);fill-rule:nonzero;"></path>
                </g>
                <g transform="matrix(1,0,0,1,5.81818,1.63998)">
                    <path d="M44.19,35.993C43.594,36.969 42.929,37.899 42.202,38.776C42.929,37.899 43.594,36.969 44.19,35.993C45.977,33.064 47.145,29.719 47.51,26.137C47.591,25.341 47.633,24.534 47.633,23.716C47.633,22.082 47.467,20.486 47.15,18.945C46.912,17.789 46.59,16.663 46.19,15.576C46.59,16.663 46.912,17.789 47.15,18.945C47.467,20.486 47.633,22.082 47.633,23.716C47.633,24.534 47.591,25.341 47.51,26.137C47.145,29.719 45.977,33.064 44.19,35.993ZM38.08,42.689C37.469,43.143 36.836,43.569 36.182,43.964C36.836,43.569 37.469,43.143 38.08,42.689C38.69,42.234 39.278,41.751 39.841,41.242C39.278,41.751 38.69,42.234 38.08,42.689ZM28.643,46.911C27.095,47.227 25.492,47.392 23.85,47.392C25.492,47.392 27.095,47.227 28.643,46.911C30.192,46.596 31.685,46.131 33.108,45.532C31.685,46.131 30.192,46.596 28.643,46.911ZM4.792,9.551C4.107,10.462 3.487,11.424 2.938,12.431C3.487,11.424 4.107,10.462 4.792,9.551ZM7.859,6.191C7.296,6.7 6.758,7.236 6.246,7.797C6.758,7.236 7.296,6.7 7.859,6.191ZM17.907,0.786C18.666,0.591 19.441,0.433 20.228,0.313C19.441,0.433 18.666,0.591 17.907,0.786C14.487,1.662 11.365,3.276 8.722,5.447C11.365,3.276 14.487,1.662 17.907,0.786ZM29.794,0.786C29.034,0.591 28.259,0.433 27.472,0.313C28.259,0.433 29.034,0.591 29.794,0.786ZM36.183,3.468C35.529,3.073 34.854,2.708 34.161,2.375C34.854,2.708 35.529,3.073 36.183,3.468ZM38.978,5.447C38.391,4.964 37.78,4.509 37.147,4.084C37.78,4.509 38.391,4.964 38.978,5.447ZM42.908,9.551C41.995,8.335 40.968,7.21 39.841,6.191C40.968,7.21 41.995,8.335 42.908,9.551ZM43.271,10.68C43.903,11.611 44.469,12.589 44.962,13.608C44.469,12.589 43.903,11.611 43.271,10.68ZM3.256,12.603C2.174,14.585 1.373,16.74 0.905,19.017C0.671,20.155 0.52,21.324 0.46,22.516C0.52,21.324 0.671,20.155 0.905,19.017C1.373,16.74 2.174,14.585 3.256,12.603C3.977,11.281 4.823,10.037 5.778,8.886C4.823,10.037 3.977,11.281 3.256,12.603ZM10.756,4.382C10.133,4.801 9.531,5.249 8.952,5.725C9.531,5.249 10.133,4.801 10.756,4.382C13.247,2.706 16.081,1.495 19.13,0.874C16.081,1.495 13.247,2.706 10.756,4.382ZM32.967,2.233C33.667,2.528 34.35,2.856 35.014,3.215C34.35,2.856 33.667,2.528 32.967,2.233ZM47.244,23.716C47.244,29.937 44.811,35.785 40.392,40.184C35.973,44.582 30.099,47.005 23.85,47.005C17.602,47.005 11.727,44.582 7.309,40.184C2.89,35.785 0.457,29.937 0.457,23.716C0.457,17.496 2.89,11.648 7.309,7.249C11.727,2.85 17.602,0.428 23.85,0.428C30.099,0.428 35.973,2.85 40.392,7.249C44.811,11.648 47.244,17.496 47.244,23.716ZM40.412,7.23C39.352,6.175 38.191,5.22 36.945,4.382C38.191,5.22 39.352,6.175 40.412,7.23C41.206,8.021 41.944,8.869 42.618,9.766C41.944,8.869 41.206,8.021 40.412,7.23ZM17.997,46.298C19.868,46.777 21.829,47.032 23.85,47.032C21.829,47.032 19.868,46.777 17.997,46.298ZM44.763,12.431C44.396,11.76 43.998,11.109 43.571,10.479C43.998,11.109 44.396,11.76 44.763,12.431ZM40.687,6.955C36.19,2.479 30.21,0.013 23.85,0.013C17.49,0.013 11.511,2.479 7.014,6.955C2.517,11.432 0.04,17.385 0.04,23.716C0.04,30.048 2.517,36 7.014,40.477C11.504,44.947 17.473,47.412 23.823,47.42L23.878,47.42C30.227,47.412 36.196,44.947 40.687,40.477C45.184,36 47.66,30.048 47.66,23.716C47.66,17.385 45.184,11.432 40.687,6.955Z" style="fill:none;stroke:rgb(113,170,164);stroke-width:1.25px;"></path>
                </g>
                <g transform="matrix(1,0,0,1,1.46628,4.5798)">
                    <path d="M7.284,7.231C11.672,2.864 17.505,0.458 23.708,0.458C29.912,0.458 35.745,2.864 40.133,7.231C44.52,11.599 46.936,17.406 46.936,23.582C46.936,29.758 44.52,35.565 40.133,39.932C35.745,44.3 29.912,46.705 23.708,46.705C17.504,46.705 11.671,44.3 7.284,39.933C2.897,35.565 0.481,29.758 0.481,23.582C0.481,17.406 2.897,11.599 7.284,7.231ZM40.437,6.928C35.969,2.48 30.028,0.03 23.708,0.03C17.389,0.03 11.448,2.48 6.979,6.928C2.511,11.376 0.05,17.291 0.05,23.582C0.05,29.873 2.511,35.787 6.979,40.236C11.439,44.676 17.367,47.125 23.674,47.134L23.743,47.134C30.049,47.125 35.977,44.676 40.437,40.236C44.906,35.787 47.367,29.873 47.367,23.582C47.367,17.291 44.906,11.376 40.437,6.928Z" style="fill:rgb(26,45,87);fill-rule:nonzero;"></path>
                </g>
                <g transform="matrix(1,0,0,1,1.46628,4.5798)">
                    <path d="M7.284,7.231C11.672,2.864 17.505,0.458 23.708,0.458C29.912,0.458 35.745,2.864 40.133,7.231C44.52,11.599 46.936,17.406 46.936,23.582C46.936,29.758 44.52,35.565 40.133,39.932C35.745,44.3 29.912,46.705 23.708,46.705C17.504,46.705 11.671,44.3 7.284,39.933C2.897,35.565 0.481,29.758 0.481,23.582C0.481,17.406 2.897,11.599 7.284,7.231ZM40.437,6.928C35.969,2.48 30.028,0.03 23.708,0.03C17.389,0.03 11.448,2.48 6.979,6.928C2.511,11.376 0.05,17.291 0.05,23.582C0.05,29.873 2.511,35.787 6.979,40.236C11.439,44.676 17.367,47.125 23.674,47.134L23.743,47.134C30.049,47.125 35.977,44.676 40.437,40.236C44.906,35.787 47.367,29.873 47.367,23.582C47.367,17.291 44.906,11.376 40.437,6.928Z" style="fill:none;stroke:rgb(26,45,87);stroke-width:1.25px;"></path>
                </g>
                <g transform="matrix(1,0,0,1,5.50733,6.90072)">
                    <path d="M7.396,7.291C11.837,2.871 17.74,0.436 24.02,0.436C30.299,0.436 36.203,2.871 40.643,7.291C45.084,11.712 47.53,17.589 47.53,23.841C47.53,30.092 45.084,35.97 40.643,40.39C36.203,44.811 30.299,47.245 24.02,47.245C17.74,47.245 11.836,44.811 7.396,40.39C2.955,35.969 0.509,30.092 0.509,23.841C0.509,17.59 2.955,11.712 7.396,7.291ZM40.952,6.984C36.429,2.482 30.416,0.002 24.02,0.002C17.623,0.002 11.61,2.482 7.087,6.984C2.564,11.487 0.073,17.473 0.073,23.841C0.073,30.208 2.564,36.195 7.087,40.697C11.602,45.191 17.601,47.671 23.984,47.68L24.054,47.68C30.437,47.671 36.437,45.191 40.952,40.697C45.475,36.195 47.966,30.208 47.967,23.841C47.966,17.473 45.475,11.487 40.952,6.984Z" style="fill:rgb(9,103,144);fill-rule:nonzero;"></path>
                    <path d="M7.396,7.291C11.837,2.871 17.74,0.436 24.02,0.436C30.299,0.436 36.203,2.871 40.643,7.291C45.084,11.712 47.53,17.589 47.53,23.841C47.53,30.092 45.084,35.97 40.643,40.39C36.203,44.811 30.299,47.245 24.02,47.245C17.74,47.245 11.836,44.811 7.396,40.39C2.955,35.969 0.509,30.092 0.509,23.841C0.509,17.59 2.955,11.712 7.396,7.291ZM40.952,6.984C36.429,2.482 30.416,0.002 24.02,0.002C17.623,0.002 11.61,2.482 7.087,6.984C2.564,11.487 0.073,17.473 0.073,23.841C0.073,30.208 2.564,36.195 7.087,40.697C11.602,45.191 17.601,47.671 23.984,47.68L24.054,47.68C30.437,47.671 36.437,45.191 40.952,40.697C45.475,36.195 47.966,30.208 47.967,23.841C47.966,17.473 45.475,11.487 40.952,6.984Z" style="fill:none;stroke:rgb(9,103,144);stroke-width:1.25px;"></path>
                </g>
            </g>
        </g>
        <g transform="matrix(0.277407,0,0,0.39392,-12.0994,-132.919)">
            <path d="M603.383,427.184C603.383,431.144 606.428,434.192 610.29,434.192C614.151,434.192 617.196,431.144 617.196,427.184C617.196,423.221 614.151,420.173 610.29,420.173C606.428,420.173 603.383,423.221 603.383,427.184ZM562.039,396.1C560.209,391.02 555.943,387.467 549.44,387.467C543.348,387.467 538.675,391.02 536.441,395.285L536.441,388.379L531.361,388.379L531.361,433.482L536.441,433.482L536.441,401.586C538.268,396.2 542.84,392.14 548.427,392.14C555.028,392.14 558.079,396.81 558.079,403.716L558.079,433.482L563.158,433.482L563.158,401.586C564.982,396.2 569.557,392.14 575.145,392.14C581.745,392.14 584.793,396.81 584.793,403.716L584.793,433.482L589.769,433.482L589.769,403.006C589.769,393.964 585.197,387.467 576.057,387.467C569.658,387.467 564.578,391.629 562.039,396.1ZM513.383,388.379L508.405,388.379L508.405,419.971C506.171,425.354 501.192,429.721 494.999,429.721C486.972,429.721 483.416,424.54 483.416,417.533L483.416,388.379L478.438,388.379L478.438,418.242C478.438,427.79 483.823,434.394 494.084,434.394C500.48,434.394 505.663,430.534 508.405,426.269L508.405,433.482L513.383,433.482L513.383,388.379ZM427.245,410.929C427.245,424.948 435.269,434.394 447.151,434.394C456.702,434.394 462.794,428.705 464.422,420.378L459.242,420.378C457.92,426.269 453.553,429.824 447.151,429.824C438.314,429.824 432.322,422.306 432.322,410.929C432.322,399.552 438.314,392.033 447.151,392.033C453.553,392.033 457.92,395.592 459.242,401.48L464.422,401.48C462.794,393.153 456.702,387.467 447.151,387.467C435.269,387.467 427.245,396.913 427.245,410.929ZM397.177,395.895C403.374,395.895 406.523,400.366 406.624,405.852L386.207,405.852C387.425,399.35 391.589,395.895 397.177,395.895ZM406.93,419.463C405.81,423.83 402.153,425.963 397.278,425.963C390.776,425.963 386.207,421.19 385.901,413.264L416.679,413.264L416.679,409.61C416.679,396.406 409.773,387.361 397.073,387.361C384.784,387.361 375.946,397.52 375.946,411.033C375.946,424.948 384.68,434.497 397.278,434.497C408.148,434.497 414.751,428.405 416.272,419.463L406.93,419.463ZM325.257,433.482L335.416,433.482L335.416,403.818C336.533,399.35 340.496,396.608 344.862,396.608C350.652,396.608 353.394,400.265 353.394,405.852L353.394,433.482L363.553,433.482L363.553,404.123C363.553,394.169 357.865,387.361 347.607,387.361C342.323,387.361 337.852,389.802 335.416,392.645L335.416,388.379L325.257,388.379L325.257,433.482ZM300.066,421.492C298.949,424.338 294.885,426.067 290.822,426.067C286.25,426.067 281.476,424.136 281.476,419.565C281.476,415.094 286.25,413.163 290.822,413.163C294.885,413.163 298.949,414.892 300.066,417.738L300.066,421.492ZM309.714,433.482L309.714,403.921C309.714,393.661 303.013,387.361 291.635,387.361C282.391,387.361 275.28,393.153 273.961,400.873L283.71,400.873C284.827,397.725 287.37,395.998 291.431,395.998C297.223,395.998 300.066,399.552 300.066,404.123L300.066,407.781C298.239,406.461 293.668,405.038 289.601,405.038C279.649,405.038 272.03,411.033 272.03,419.565C272.03,428.806 279.649,434.292 288.891,434.292C293.973,434.292 298.542,432.463 300.066,430.942L300.066,433.482L309.714,433.482ZM224.693,420.479C226.015,429.213 233.329,434.497 243.893,434.497C254.052,434.497 261.466,429.011 261.466,420.073C261.466,413.469 257.605,409.102 249.887,407.272L240.336,405.038C237.087,404.224 235.664,402.903 235.664,400.873C235.664,397.321 239.321,395.693 242.879,395.693C247.552,395.693 250.19,397.725 251.105,400.671L261.06,400.671C259.538,392.44 253.544,387.361 242.978,387.361C233.124,387.361 225.915,393.355 225.915,401.48C225.915,408.897 230.688,412.352 237.087,413.875L246.432,416.113C250.19,417.025 251.714,418.344 251.714,420.783C251.714,424.338 248.666,426.168 243.993,426.168C239.525,426.168 236.172,424.238 235.055,420.479L224.693,420.479Z" style="fill:rgb(26,45,87);fill-rule:nonzero;"></path>
        </g>
    </g>
</svg>
