<?xml version="1.0" encoding="UTF-8" standalone="no"?>
<svg xmlns="http://www.w3.org/2000/svg" xmlns:xlink="http://www.w3.org/1999/xlink" xmlns:serif="http://www.serif.com/" width="100%" height="100%" viewBox="0 0 391 127" version="1.1" xml:space="preserve" style="fill-rule:evenodd;clip-rule:evenodd;stroke-linejoin:round;stroke-miterlimit:2;">
    <g transform="matrix(1,0,0,1,0,-695)">
        <g id="LP_quer_web" transform="matrix(0.15747,0,0,0.0360839,-423.201,695.39)">
            <rect x="2687.5" y="0" width="2479.17" height="3508.33" style="fill:none;"></rect>
            <clipPath id="_clip1">
                <rect x="2687.5" y="0" width="2479.17" height="3508.33"></rect>
            </clipPath>
            <g clip-path="url(#_clip1)">
                <g transform="matrix(5.07847,0,0,22.1624,-2897.63,-17573.9)">
                    <g transform="matrix(75.0197,0,0,75.0197,1548.34,845.874)">
                        <path d="M0.232,-0.299L0.043,-0.299L0.043,-0.406L0.232,-0.406L0.232,-0.596L0.339,-0.596L0.339,-0.406L0.528,-0.406L0.528,-0.299L0.339,-0.299L0.339,-0.111L0.232,-0.111L0.232,-0.299Z" style="fill:rgb(183,191,16);fill-rule:nonzero;"></path>
                    </g>
                    <g transform="matrix(63.5344,0,0,63.5204,1276.39,841.68)">
                        <path d="M0.09,0L0.09,-0.714L0.241,-0.714L0.241,-0.125L0.531,-0.125L0.531,0L0.09,0Z" style="fill:rgb(9,21,0);fill-rule:nonzero;"></path>
                    </g>
                    <g transform="matrix(63.5344,0,0,63.5204,1313.06,841.68)">
                        <path d="M0.527,0L0.475,-0.17L0.215,-0.17L0.163,0L0,0L0.252,-0.717L0.437,-0.717L0.69,0L0.527,0ZM0.439,-0.297C0.391,-0.451 0.364,-0.538 0.358,-0.558C0.352,-0.578 0.348,-0.594 0.345,-0.606C0.334,-0.564 0.304,-0.461 0.253,-0.297L0.439,-0.297Z" style="fill:rgb(9,21,0);fill-rule:nonzero;"></path>
                    </g>
                    <g transform="matrix(63.5344,0,0,63.5204,1353.2,841.68)">
                        <path d="M0.393,-0.598C0.336,-0.598 0.292,-0.577 0.261,-0.534C0.229,-0.491 0.214,-0.431 0.214,-0.355C0.214,-0.196 0.274,-0.116 0.393,-0.116C0.443,-0.116 0.504,-0.129 0.575,-0.154L0.575,-0.027C0.517,-0.002 0.451,0.01 0.379,0.01C0.275,0.01 0.196,-0.022 0.141,-0.085C0.086,-0.148 0.058,-0.238 0.058,-0.356C0.058,-0.43 0.072,-0.495 0.099,-0.551C0.126,-0.607 0.164,-0.65 0.215,-0.679C0.266,-0.709 0.325,-0.724 0.393,-0.724C0.462,-0.724 0.532,-0.707 0.602,-0.674L0.553,-0.551C0.527,-0.563 0.5,-0.575 0.473,-0.584C0.446,-0.593 0.419,-0.598 0.393,-0.598Z" style="fill:rgb(9,21,0);fill-rule:nonzero;"></path>
                    </g>
                    <g transform="matrix(63.5344,0,0,63.5204,1388.66,841.68)">
                        <path d="M0.675,0L0.524,0L0.524,-0.308L0.241,-0.308L0.241,0L0.09,0L0.09,-0.714L0.241,-0.714L0.241,-0.434L0.524,-0.434L0.524,-0.714L0.675,-0.714L0.675,0Z" style="fill:rgb(9,21,0);fill-rule:nonzero;"></path>
                    </g>
                    <g transform="matrix(63.5344,0,0,63.5204,1430.49,841.68)">
                        <path d="M0.723,0L0.531,0L0.22,-0.54L0.216,-0.54C0.222,-0.445 0.225,-0.377 0.225,-0.336L0.225,0L0.09,0L0.09,-0.714L0.281,-0.714L0.591,-0.179L0.594,-0.179C0.589,-0.272 0.587,-0.338 0.587,-0.376L0.587,-0.714L0.723,-0.714L0.723,0Z" style="fill:rgb(9,21,0);fill-rule:nonzero;"></path>
                    </g>
                    <g transform="matrix(63.5344,0,0,63.5204,1475.07,841.68)">
                        <path d="M0.501,0L0.09,0L0.09,-0.714L0.501,-0.714L0.501,-0.59L0.241,-0.59L0.241,-0.433L0.483,-0.433L0.483,-0.309L0.241,-0.309L0.241,-0.125L0.501,-0.125L0.501,0Z" style="fill:rgb(9,21,0);fill-rule:nonzero;"></path>
                    </g>
                    <g transform="matrix(63.5344,0,0,63.5204,1505.71,841.68)">
                        <path d="M0.241,-0.397L0.29,-0.397C0.338,-0.397 0.373,-0.405 0.396,-0.421C0.419,-0.437 0.43,-0.462 0.43,-0.496C0.43,-0.53 0.419,-0.554 0.395,-0.568C0.372,-0.583 0.336,-0.59 0.287,-0.59L0.241,-0.59L0.241,-0.397ZM0.241,-0.274L0.241,0L0.09,0L0.09,-0.714L0.298,-0.714C0.395,-0.714 0.467,-0.696 0.513,-0.661C0.56,-0.626 0.583,-0.572 0.583,-0.5C0.583,-0.458 0.571,-0.421 0.548,-0.388C0.525,-0.355 0.493,-0.33 0.45,-0.311C0.558,-0.151 0.628,-0.047 0.66,0L0.492,0L0.322,-0.274L0.241,-0.274Z" style="fill:rgb(9,21,0);fill-rule:nonzero;"></path>
                    </g>
                </g>
                <g transform="matrix(5.21384,0,0,22.7532,-3071.92,-17938.7)">
                    <g transform="matrix(62.0903,0,0,61.8712,1276.66,893.589)">
                        <path d="M0.241,-0.378L0.291,-0.378C0.338,-0.378 0.372,-0.387 0.396,-0.406C0.419,-0.424 0.43,-0.451 0.43,-0.486C0.43,-0.521 0.42,-0.548 0.401,-0.564C0.382,-0.581 0.351,-0.59 0.31,-0.59L0.241,-0.59L0.241,-0.378ZM0.583,-0.491C0.583,-0.414 0.559,-0.356 0.511,-0.315C0.463,-0.274 0.395,-0.254 0.306,-0.254L0.241,-0.254L0.241,0L0.09,0L0.09,-0.714L0.318,-0.714C0.404,-0.714 0.47,-0.695 0.515,-0.658C0.56,-0.621 0.583,-0.565 0.583,-0.491Z" style="fill:rgb(9,21,0);fill-rule:nonzero;"></path>
                    </g>
                    <g transform="matrix(62.0903,0,0,61.8712,1308.18,893.589)">
                        <path d="M0.527,0L0.475,-0.17L0.215,-0.17L0.163,0L0,0L0.252,-0.717L0.437,-0.717L0.69,0L0.527,0ZM0.439,-0.297C0.391,-0.451 0.364,-0.538 0.358,-0.558C0.352,-0.578 0.348,-0.594 0.345,-0.606C0.334,-0.564 0.304,-0.461 0.253,-0.297L0.439,-0.297Z" style="fill:rgb(9,21,0);fill-rule:nonzero;"></path>
                    </g>
                    <g transform="matrix(62.0903,0,0,61.8712,1345.94,893.589)">
                        <path d="M0.671,-0.714L0.671,-0.252C0.671,-0.199 0.659,-0.153 0.635,-0.113C0.612,-0.074 0.578,-0.043 0.533,-0.022C0.489,-0.001 0.436,0.01 0.375,0.01C0.283,0.01 0.212,-0.014 0.161,-0.061C0.11,-0.108 0.085,-0.172 0.085,-0.254L0.085,-0.714L0.236,-0.714L0.236,-0.277C0.236,-0.222 0.247,-0.181 0.269,-0.156C0.291,-0.13 0.328,-0.117 0.379,-0.117C0.428,-0.117 0.464,-0.13 0.487,-0.156C0.509,-0.182 0.52,-0.222 0.52,-0.278L0.52,-0.714L0.671,-0.714Z" style="fill:rgb(9,21,0);fill-rule:nonzero;"></path>
                    </g>
                    <g transform="matrix(62.0903,0,0,61.8712,1386.83,893.589)">
                        <path d="M0.09,0L0.09,-0.714L0.241,-0.714L0.241,-0.125L0.531,-0.125L0.531,0L0.09,0Z" style="fill:rgb(9,21,0);fill-rule:nonzero;"></path>
                    </g>
                    <g transform="matrix(62.0903,0,0,61.8712,1420.19,893.589)">
                        <path d="M0.511,-0.198C0.511,-0.134 0.488,-0.083 0.442,-0.046C0.395,-0.009 0.331,0.01 0.248,0.01C0.172,0.01 0.104,-0.005 0.046,-0.033L0.046,-0.174C0.094,-0.152 0.135,-0.137 0.168,-0.128C0.202,-0.12 0.232,-0.115 0.26,-0.115C0.293,-0.115 0.318,-0.122 0.336,-0.134C0.354,-0.147 0.363,-0.166 0.363,-0.191C0.363,-0.205 0.359,-0.217 0.351,-0.228C0.343,-0.239 0.332,-0.25 0.317,-0.26C0.302,-0.27 0.271,-0.286 0.224,-0.308C0.181,-0.329 0.148,-0.348 0.126,-0.367C0.104,-0.386 0.087,-0.408 0.074,-0.433C0.061,-0.458 0.054,-0.487 0.054,-0.521C0.054,-0.584 0.076,-0.634 0.118,-0.67C0.161,-0.706 0.22,-0.724 0.296,-0.724C0.333,-0.724 0.368,-0.72 0.402,-0.711C0.436,-0.702 0.471,-0.69 0.508,-0.674L0.459,-0.556C0.421,-0.572 0.389,-0.583 0.365,-0.589C0.34,-0.595 0.315,-0.598 0.291,-0.598C0.262,-0.598 0.24,-0.591 0.225,-0.578C0.21,-0.565 0.202,-0.547 0.202,-0.526C0.202,-0.513 0.205,-0.501 0.211,-0.491C0.218,-0.481 0.227,-0.471 0.241,-0.462C0.254,-0.453 0.286,-0.436 0.337,-0.412C0.404,-0.38 0.449,-0.348 0.474,-0.316C0.499,-0.284 0.511,-0.245 0.511,-0.198Z" style="fill:rgb(9,21,0);fill-rule:nonzero;"></path>
                    </g>
                </g>
                <g transform="matrix(13.8747,0,0,71.909,2034.03,-17905.1)">
                    <g transform="matrix(16.4919,0,0,13.8835,113.04,296.736)">
                        <path d="M0.501,-0.19C0.501,-0.127 0.478,-0.078 0.433,-0.043C0.387,-0.008 0.325,0.01 0.247,0.01C0.162,0.01 0.097,-0.001 0.052,-0.023L0.052,-0.103C0.081,-0.091 0.113,-0.081 0.147,-0.074C0.182,-0.067 0.216,-0.063 0.25,-0.063C0.305,-0.063 0.347,-0.073 0.375,-0.094C0.403,-0.115 0.417,-0.145 0.417,-0.182C0.417,-0.207 0.412,-0.227 0.402,-0.243C0.392,-0.259 0.376,-0.273 0.352,-0.287C0.329,-0.3 0.294,-0.315 0.246,-0.332C0.18,-0.356 0.132,-0.384 0.104,-0.417C0.075,-0.449 0.061,-0.492 0.061,-0.544C0.061,-0.599 0.082,-0.643 0.123,-0.675C0.164,-0.708 0.219,-0.724 0.287,-0.724C0.358,-0.724 0.423,-0.711 0.483,-0.685L0.457,-0.613C0.398,-0.638 0.341,-0.65 0.285,-0.65C0.241,-0.65 0.207,-0.64 0.182,-0.622C0.157,-0.603 0.145,-0.576 0.145,-0.543C0.145,-0.518 0.15,-0.498 0.159,-0.482C0.168,-0.466 0.183,-0.452 0.205,-0.439C0.226,-0.426 0.26,-0.411 0.304,-0.395C0.379,-0.368 0.431,-0.34 0.459,-0.309C0.487,-0.278 0.501,-0.239 0.501,-0.19Z" style="fill:rgb(24,23,21);fill-rule:nonzero;"></path>
                    </g>
                    <g transform="matrix(16.4919,0,0,13.8835,123.411,296.736)">
                        <path d="M0.404,-0.65C0.325,-0.65 0.263,-0.624 0.218,-0.572C0.173,-0.519 0.15,-0.448 0.15,-0.357C0.15,-0.264 0.172,-0.191 0.216,-0.14C0.259,-0.089 0.322,-0.064 0.403,-0.064C0.453,-0.064 0.509,-0.073 0.573,-0.091L0.573,-0.018C0.524,0 0.463,0.01 0.39,0.01C0.285,0.01 0.204,-0.022 0.147,-0.086C0.09,-0.15 0.061,-0.24 0.061,-0.358C0.061,-0.431 0.075,-0.496 0.102,-0.551C0.13,-0.607 0.17,-0.649 0.221,-0.679C0.273,-0.709 0.334,-0.724 0.405,-0.724C0.48,-0.724 0.545,-0.71 0.601,-0.683L0.566,-0.612C0.512,-0.637 0.458,-0.65 0.404,-0.65Z" style="fill:rgb(24,23,21);fill-rule:nonzero;"></path>
                    </g>
                    <g transform="matrix(16.4919,0,0,13.8835,135.134,296.736)">
                        <path d="M0.64,0L0.557,0L0.557,-0.336L0.181,-0.336L0.181,0L0.098,0L0.098,-0.714L0.181,-0.714L0.181,-0.41L0.557,-0.41L0.557,-0.714L0.64,-0.714L0.64,0Z" style="fill:rgb(24,23,21);fill-rule:nonzero;"></path>
                    </g>
                    <g transform="matrix(16.4919,0,0,13.8835,148.621,296.736)">
                        <path d="M0.181,-0.297L0.181,0L0.098,0L0.098,-0.714L0.294,-0.714C0.382,-0.714 0.446,-0.697 0.488,-0.664C0.53,-0.63 0.551,-0.58 0.551,-0.512C0.551,-0.418 0.503,-0.354 0.407,-0.321L0.601,0L0.503,0L0.33,-0.297L0.181,-0.297ZM0.181,-0.368L0.295,-0.368C0.354,-0.368 0.396,-0.38 0.424,-0.403C0.451,-0.426 0.465,-0.461 0.465,-0.508C0.465,-0.555 0.451,-0.589 0.423,-0.61C0.395,-0.631 0.351,-0.641 0.289,-0.641L0.181,-0.641L0.181,-0.368Z" style="fill:rgb(24,23,21);fill-rule:nonzero;"></path>
                    </g>
                    <g transform="matrix(16.4919,0,0,13.8835,160.135,296.736)">
                        <path d="M0.496,0L0.098,0L0.098,-0.714L0.496,-0.714L0.496,-0.64L0.181,-0.64L0.181,-0.41L0.477,-0.41L0.477,-0.337L0.181,-0.337L0.181,-0.074L0.496,-0.074L0.496,0Z" style="fill:rgb(24,23,21);fill-rule:nonzero;"></path>
                    </g>
                    <g transform="matrix(16.4919,0,0,13.8835,170.626,296.736)">
                        <rect x="0.098" y="-0.714" width="0.083" height="0.714" style="fill:rgb(24,23,21);fill-rule:nonzero;"></rect>
                    </g>
                    <g transform="matrix(16.4919,0,0,13.8835,176.544,296.736)">
                        <path d="M0.656,0L0.561,0L0.171,-0.599L0.167,-0.599C0.172,-0.529 0.175,-0.464 0.175,-0.406L0.175,0L0.098,0L0.098,-0.714L0.192,-0.714L0.581,-0.117L0.585,-0.117C0.584,-0.126 0.583,-0.154 0.581,-0.202C0.578,-0.25 0.577,-0.284 0.578,-0.304L0.578,-0.714L0.656,-0.714L0.656,0Z" style="fill:rgb(24,23,21);fill-rule:nonzero;"></path>
                    </g>
                    <g transform="matrix(16.4919,0,0,13.8835,190.296,296.736)">
                        <path d="M0.496,0L0.098,0L0.098,-0.714L0.496,-0.714L0.496,-0.64L0.181,-0.64L0.181,-0.41L0.477,-0.41L0.477,-0.337L0.181,-0.337L0.181,-0.074L0.496,-0.074L0.496,0Z" style="fill:rgb(24,23,21);fill-rule:nonzero;"></path>
                    </g>
                    <g transform="matrix(16.4919,0,0,13.8835,200.788,296.736)">
                        <path d="M0.181,-0.297L0.181,0L0.098,0L0.098,-0.714L0.294,-0.714C0.382,-0.714 0.446,-0.697 0.488,-0.664C0.53,-0.63 0.551,-0.58 0.551,-0.512C0.551,-0.418 0.503,-0.354 0.407,-0.321L0.601,0L0.503,0L0.33,-0.297L0.181,-0.297ZM0.181,-0.368L0.295,-0.368C0.354,-0.368 0.396,-0.38 0.424,-0.403C0.451,-0.426 0.465,-0.461 0.465,-0.508C0.465,-0.555 0.451,-0.589 0.423,-0.61C0.395,-0.631 0.351,-0.641 0.289,-0.641L0.181,-0.641L0.181,-0.368Z" style="fill:rgb(24,23,21);fill-rule:nonzero;"></path>
                    </g>
                    <g transform="matrix(16.4919,0,0,13.8835,212.302,296.736)">
                        <path d="M0.496,0L0.098,0L0.098,-0.714L0.496,-0.714L0.496,-0.64L0.181,-0.64L0.181,-0.41L0.477,-0.41L0.477,-0.337L0.181,-0.337L0.181,-0.074L0.496,-0.074L0.496,0Z" style="fill:rgb(24,23,21);fill-rule:nonzero;"></path>
                    </g>
                    <g transform="matrix(16.4919,0,0,13.8835,222.793,296.736)">
                        <rect x="0.098" y="-0.714" width="0.083" height="0.714" style="fill:rgb(24,23,21);fill-rule:nonzero;"></rect>
                    </g>
                </g>
                <g transform="matrix(7.10881,0,0,31.0228,-4696.31,-11758.9)">
                    <path d="M1151.5,492.13L1038.68,492.13L1038.68,379.041L1151.5,379.041L1151.5,492.13Z" style="fill:white;"></path>
                </g>
                <g transform="matrix(6.35041,0,0,27.7132,2687.5,-19271.5)">
                    <path d="M126.288,821.985L0,821.985L0,695.39L126.288,695.39L126.288,821.985ZM31.781,698.077L31.781,788.877L94.702,788.877L94.702,819.298L123.601,819.298L123.601,698.077L31.781,698.077ZM94.702,757.416L61.97,757.416L61.97,728.498L94.702,728.498L94.702,757.416Z" style="fill:rgb(183,191,16);"></path>
                </g>
            </g>
        </g>
    </g>
</svg>
