<?xml version="1.0" encoding="UTF-8"?>
<svg xmlns="http://www.w3.org/2000/svg" xmlns:xlink="http://www.w3.org/1999/xlink" width="42px" height="42px" viewBox="0 0 42 42" version="1.1">
  <title>Group 8</title>
  <g id="Page-1" stroke="none" stroke-width="1" fill="none" fill-rule="evenodd">
    <g id="1---1---homescreen-copy" transform="translate(-1362.000000, -794.000000)">
      <g id="quickmenu_open" transform="translate(1241.000000, 794.000000)">
        <g id="Group-8" transform="translate(121.000000, 0.000000)">
          <circle id="Oval-Copy-4" fill="#3B83BD" cx="21" cy="21" r="21"></circle>
          <g id="filter_drama" transform="translate(9.000000, 9.000000)">
            <polygon id="Path" points="0 0 24 0 24 24 0 24"></polygon>
            <path d="M19.35,10.04 C18.67,6.59 15.64,4 12,4 C9.11,4 6.61,5.64 5.36,8.04 C2.35,8.36 0,10.9 0,14 C0,17.31 2.69,20 6,20 L19,20 C21.76,20 24,17.76 24,15 C24,12.36 21.95,10.22 19.35,10.04 Z M19,18 L6,18 C3.79,18 2,16.21 2,14 C2,11.79 3.79,10 6,10 C8.21,10 10,11.79 10,14 L12,14 C12,11.24 10.14,8.92 7.6,8.22 C8.61,6.88 10.2,6 12,6 C15.03,6 17.5,8.47 17.5,11.5 L17.5,12 L19,12 C20.65,12 22,13.35 22,15 C22,16.65 20.65,18 19,18 Z" id="🔹-Icon-Color" fill="#FFFFFF"></path>
          </g>
        </g>
      </g>
    </g>
  </g>
</svg>
