<?xml version="1.0" encoding="UTF-8"?>
<svg xmlns="http://www.w3.org/2000/svg" xmlns:xlink="http://www.w3.org/1999/xlink" width="131px" height="85px" viewBox="0 0 131 85" version="1.1">
  <title>Logo-Nachbau Copy</title>
  <g id="Symbols" stroke="none" stroke-width="1" fill="none" fill-rule="evenodd">
    <g id="Logo-Nachbau-Copy">
      <path d="M23.5790476,74.1542269 C23.5790476,73.55628 23.5161905,73.0811402 23.3904762,72.7277349 C23.2647619,72.3743295 23.0723308,72.1061919 22.8142857,71.9227858 C22.5556892,71.7393797 22.2204511,71.6203266 21.8085714,71.5661628 C21.3961404,71.511999 20.9037594,71.484649 20.3314286,71.484649 C20.2895238,73.332117 20.2685714,75.1801213 20.2685714,77.0275893 C20.352381,77.0409962 20.4323308,77.0511854 20.5095238,77.058157 C20.5861654,77.0651286 20.6594987,77.0683462 20.7295238,77.0683462 C21.6514286,77.0683462 22.3566416,76.8270224 22.8457143,76.344911 C23.3342356,75.8627996 23.5790476,75.1323928 23.5790476,74.1542269 Z M20.2685714,77.9038629 L20.2685714,78.7393797 C20.2685714,79.8671664 20.2823559,80.8689285 20.3104762,81.7452021 C20.3380451,82.6214758 20.3799499,83.4805886 20.4361905,84.3230769 C20.1985464,84.2957269 19.9399499,84.28232 19.6609524,84.28232 L17.7752381,84.28232 C17.4956892,84.28232 17.2370927,84.2957269 17,84.3230769 C17.0556892,83.4805886 17.097594,82.6214758 17.1257143,81.7452021 C17.1532832,80.8689285 17.167619,79.8671664 17.167619,78.7393797 L17.167619,75.9679095 C17.167619,74.8401228 17.1532832,73.8383608 17.1257143,72.9620871 C17.097594,72.0858135 17.0556892,71.2063222 17,70.3230769 C17.2370927,70.350427 17.4956892,70.3740231 17.7752381,70.3944015 C18.0542356,70.41478 18.3685213,70.4249692 18.7180952,70.4249692 C19.0952381,70.4249692 19.5247619,70.4078084 20.0066667,70.3740231 C20.4885714,70.3402377 21.0857143,70.3230769 21.7980952,70.3230769 C22.3285213,70.3230769 22.7828571,70.3364838 23.16,70.3638338 C23.5371429,70.3911839 23.8619048,70.4319408 24.1342857,70.4861046 C24.4066667,70.5402684 24.6437594,70.611593 24.8466667,70.7000784 C25.0490226,70.7885638 25.2409023,70.8936737 25.4228571,71.0159445 C25.8419048,71.3146497 26.1732832,71.6852159 26.4180952,72.1265704 C26.6623559,72.5679249 26.7847619,73.0945471 26.7847619,73.7059008 C26.7847619,74.6974736 26.505213,75.5061766 25.9466667,76.1309372 C25.3875689,76.7556978 24.5847619,77.1975885 23.5371429,77.4555369 C24.207619,78.6101374 24.9266165,79.7615202 25.6952381,80.9096854 C26.4633083,82.0578505 27.2313784,83.1952902 28,84.3230769 C27.6785464,84.2957269 27.3642607,84.28232 27.0571429,84.28232 L25.1609524,84.28232 C24.8466667,84.28232 24.5285213,84.2957269 24.207619,84.3230769 L20.4571429,77.9038629 L20.2685714,77.9038629 L20.2685714,77.9038629 Z" id="Fill-1" fill="#000000"></path>
      <path d="M34.9795918,78.8595661 C34.9795918,77.7026056 34.829753,76.8051697 34.5306122,76.1672584 C34.2309345,75.529347 33.7346939,75.2106509 33.0408163,75.2106509 C32.4146079,75.2106509 31.9215897,75.5656805 31.5612245,76.2757396 C31.2003222,76.9857988 31.0204082,78.0970829 31.0204082,79.609073 C31.0204082,80.1613412 31.0542427,80.6741617 31.122449,81.1475345 C31.1901182,81.6209073 31.3023631,82.0319942 31.4591837,82.3802761 C31.6154672,82.7285581 31.8195489,83.0015779 32.0714286,83.1988166 C32.3227712,83.3960552 32.6390977,83.4946746 33.0204082,83.4946746 C34.3265306,83.4946746 34.9795918,81.9494654 34.9795918,78.8595661 Z M28,79.5893491 C28,78.7085228 28.1390977,77.939292 28.4183673,77.2816568 C28.6970999,76.6240216 29.0676692,76.0753867 29.5306122,75.634714 C29.9930183,75.1940413 30.5268528,74.8654832 31.1326531,74.6485207 C31.7379162,74.4315582 32.3603652,74.3230769 33,74.3230769 C34.5918367,74.3230769 35.8227712,74.757002 36.6938776,75.6248521 C37.5644468,76.4927022 38,77.6693865 38,79.1554241 C38,79.9573549 37.877551,80.6809094 37.6326531,81.3250493 C37.3877551,81.9691892 37.0440387,82.5183432 36.6020408,82.9719921 C36.1595059,83.425641 35.6326531,83.764061 35.0204082,83.9877712 C34.4081633,84.2114814 33.7346939,84.3230769 33,84.3230769 C32.3877551,84.3230769 31.7857143,84.2441815 31.1938776,84.0863905 C30.6020408,83.9285996 30.0676692,83.6623274 29.5918367,83.287574 C29.1154672,82.9128205 28.7309345,82.4228382 28.4387755,81.818146 C28.1460795,81.2134538 28,80.4701754 28,79.5893491 L28,79.5893491 Z" id="Fill-2" fill="#000000"></path>
      <path d="M39.8459215,81.6406312 C39.9305136,81.8508461 40.0395929,82.0517181 40.173716,82.2422091 C40.3072826,82.4327001 40.4731277,82.6039863 40.6706949,82.7550296 C40.8677055,82.9060729 41.1042296,83.0280494 41.3791541,83.1199211 C41.6540785,83.2117928 41.9746383,83.2579882 42.3413897,83.2579882 C42.8344729,83.2579882 43.2151375,83.139645 43.4833837,82.9029586 C43.7510733,82.6662722 43.8851964,82.4098619 43.8851964,82.1337278 C43.8851964,81.8311222 43.7649865,81.5882072 43.5256798,81.4039448 C43.2858165,81.2196823 42.9864048,81.0520295 42.6268882,80.9009862 C42.2673716,80.7499429 41.8761329,80.5952663 41.4531722,80.4374753 C41.0302115,80.2796844 40.6389728,80.0793315 40.2794562,79.8358974 C39.9199396,79.5924634 39.6199714,79.2867435 39.3806647,78.9187377 C39.1408014,78.5507319 39.021148,78.0773591 39.021148,77.4986193 C39.021148,76.9463511 39.1302274,76.469864 39.3489426,76.0686391 C39.5671013,75.6674141 39.8525998,75.338856 40.2054381,75.0824458 C40.5577198,74.8260355 40.9561934,74.6355445 41.4003021,74.5104536 C41.8444109,74.3853628 42.2846239,74.3230769 42.7220544,74.3230769 C43.3141994,74.3230769 43.8390046,74.4019724 44.2975831,74.5597633 C44.755605,74.7175542 45.224201,74.947493 45.7039275,75.2500986 C45.5770393,75.5132565 45.4712991,75.7956192 45.3867069,76.0982249 C45.3021148,76.4008305 45.2386707,76.6966885 45.1963746,76.9857988 L44.6042296,76.9857988 C44.5619335,76.8280079 44.4912546,76.6536074 44.3927492,76.4631164 C44.2936874,76.2726254 44.1601208,76.0914772 43.9909366,75.9207101 C43.8217523,75.7499429 43.6169502,75.6082425 43.3776435,75.4966469 C43.1377803,75.3850514 42.8489426,75.3289941 42.510574,75.3289941 C42.0876133,75.3289941 41.7314358,75.4343611 41.4425982,75.6445759 C41.153204,75.8547908 41.0090634,76.1309249 41.0090634,76.4729783 C41.0090634,76.7885602 41.132056,77.0418561 41.3791541,77.2323471 C41.6256957,77.4228382 41.9323422,77.590491 42.2990937,77.7353057 C42.6652886,77.8801204 43.0671013,78.0244161 43.5045317,78.1692308 C43.9414056,78.3140455 44.3432183,78.5014222 44.7099698,78.7313609 C45.0761647,78.9612997 45.3828113,79.260791 45.6299094,79.6287968 C45.8764509,79.9968027 46,80.4701754 46,81.0489152 C46,81.6276549 45.887025,82.1238659 45.6616314,82.5380671 C45.4356813,82.9522682 45.1329305,83.2943216 44.7522659,83.5637081 C44.3716012,83.8330946 43.9380665,84.0272189 43.4516616,84.1455621 C42.9652568,84.2639053 42.4538082,84.3230769 41.918429,84.3230769 C41.2839879,84.3230769 40.7129909,84.2374338 40.2054381,84.0666667 C39.6978852,83.8958995 39.2960725,83.7183847 39,83.5341223 C39.1691843,82.9029586 39.2749245,82.2717949 39.3172205,81.6406312 L39.8459215,81.6406312" id="Fill-3" fill="#000000"></path>
      <path d="M50.0550459,79.3526627 C50.0550459,79.8784595 50.1099107,80.3715561 50.2201835,80.8319527 C50.3299131,81.2923492 50.4988532,81.6899408 50.7259174,82.0252465 C50.9529817,82.3605523 51.2419725,82.6237102 51.5928899,82.8142012 C51.9438073,83.0046922 52.3528489,83.1001972 52.8211009,83.1001972 C53.7706422,83.1001972 54.6169725,82.8043393 55.3600917,82.2126233 L55.6077982,82.3901381 L55.1536697,83.4946746 C54.8092709,83.7443372 54.3964268,83.9452092 53.9151376,84.0962525 C53.4333052,84.2472958 52.8004587,84.3230769 52.016055,84.3230769 C51.341381,84.3230769 50.7014727,84.2343195 50.0963303,84.0568047 C49.4906446,83.8792899 48.9572067,83.5865462 48.4965596,83.1790927 C48.0353694,82.7716392 47.6708716,82.2551853 47.4025229,81.6307692 C47.1341743,81.0063532 47,80.2599606 47,79.3921105 C47,78.5372366 47.1200507,77.7944773 47.3612385,77.1633136 C47.6018831,76.5321499 47.9354177,76.0063532 48.3623853,75.5854043 C48.7888098,75.1644555 49.2945437,74.8488737 49.8795872,74.6386588 C50.4640874,74.4284439 51.1007364,74.3230769 51.7889908,74.3230769 C53.1513761,74.3230769 54.1938073,74.704578 54.9162844,75.4670611 C55.6387615,76.2295443 56,77.3081283 56,78.7017751 L56,79.1159763 C56,79.2343195 55.9929382,79.313215 55.9793578,79.3526627 L50.0550459,79.3526627 Z M53.233945,78.4650888 C53.2062409,77.4788955 53.0791284,76.6899408 52.8520642,76.0982249 C52.625,75.5065089 52.2431193,75.2106509 51.706422,75.2106509 C51.4033076,75.2106509 51.1490826,75.3092702 50.9426606,75.5065089 C50.7362385,75.7037475 50.5711009,75.9570435 50.4472477,76.2658777 C50.3233945,76.5747119 50.2305046,76.9235129 50.168578,77.3112426 C50.1066514,77.6989723 50.0686263,78.0835877 50.0550459,78.4650888 L53.233945,78.4650888 L53.233945,78.4650888 Z" id="Fill-4" fill="#000000"></path>
      <path d="M59.84,76.1044534 C60.2131579,75.5376518 60.65,75.0992329 61.15,74.788664 C61.65,74.478095 62.22,74.3230769 62.86,74.3230769 C63.86,74.3230769 64.63,74.6165992 65.17,75.2036437 C65.71,75.7906883 65.98,76.738909 65.98,78.0477733 C65.98,78.7360324 65.9663158,79.3433198 65.94,79.8696356 C65.9131579,80.3959514 65.9,80.9222672 65.9,81.448583 C65.9,81.8806094 65.91,82.3493927 65.93,82.8554656 C65.95,83.3615385 65.9731579,83.8505647 66,84.3230769 C65.8263158,84.2959088 65.6063158,84.2825911 65.34,84.2825911 L63.66,84.2825911 C63.3931579,84.2825911 63.1731579,84.2959088 63,84.3230769 C63.0931579,83.6215001 63.1531579,82.7947368 63.18,81.8433198 C63.2063158,80.8919028 63.22,79.8019817 63.22,78.5740891 C63.22,77.7238866 63.0763158,77.0995525 62.79,76.7016194 C62.5031579,76.3036863 62.1,76.1044534 61.58,76.1044534 C60.98,76.1044534 60.54,76.3676113 60.26,76.8939271 C59.98,77.4202429 59.84,78.1489879 59.84,79.0801619 L59.84,79.8898785 C59.84,80.7129128 59.85,81.4890688 59.87,82.2178138 C59.89,82.9465587 59.9331579,83.6481355 60,84.3230769 C59.8263158,84.2959088 59.61,84.2825911 59.35,84.2825911 L57.66,84.2825911 C57.4063158,84.2825911 57.1863158,84.2959088 57,84.3230769 C57.0663158,83.6481355 57.11,82.9465587 57.13,82.2178138 C57.15,81.4890688 57.16,80.7129128 57.16,79.8898785 L57.16,79.0801619 C57.16,78.2571276 57.15,77.4841679 57.13,76.7623482 C57.11,76.0405284 57.0663158,75.3149798 57,74.5862348 C57.24,74.6134029 57.4763158,74.6368421 57.71,74.657085 C57.9431579,74.6773279 58.18,74.6874494 58.42,74.6874494 C58.66,74.6874494 58.8963158,74.6773279 59.13,74.657085 C59.3631579,74.6368421 59.6131579,74.6134029 59.88,74.5862348 L59.8,76.1044534 L59.84,76.1044534" id="Fill-5" fill="#000000"></path>
      <path d="M68.16,76.206366 C68.16,74.9064568 68.1463158,73.7128228 68.12,72.6254642 C68.0931579,71.5381055 68.0531579,70.4371353 68,69.3230769 C68.1731579,69.3497766 68.3931579,69.3728117 68.66,69.3927056 C68.9263158,69.4125995 69.2063158,69.4225464 69.5,69.4225464 C69.7931579,69.4225464 70.0731579,69.4125995 70.34,69.3927056 C70.6063158,69.3728117 70.8263158,69.3497766 71,69.3230769 C70.9463158,70.4371353 70.9063158,71.5381055 70.88,72.6254642 C70.8531579,73.7128228 70.84,74.9064568 70.84,76.206366 L70.88,76.2461538 C71.2263158,75.6891247 71.65,75.2582647 72.15,74.9530504 C72.65,74.6478361 73.22,74.4954907 73.86,74.4954907 C74.86,74.4954907 75.63,74.7839523 76.17,75.3608753 C76.71,75.9377984 76.98,76.8696705 76.98,78.1559682 C76.98,78.8323607 76.9663158,79.4291777 76.94,79.9464191 C76.9131579,80.4636605 76.9,80.9809019 76.9,81.4981432 C76.9,81.9227209 76.91,82.3834218 76.93,82.8807692 C76.95,83.3781167 76.9731579,83.8587114 77,84.3230769 C76.8263158,84.2963772 76.6063158,84.2832891 76.34,84.2832891 L74.66,84.2832891 C74.3931579,84.2832891 74.1731579,84.2963772 74,84.3230769 C74.0931579,83.6335963 74.1531579,82.8210875 74.18,81.8860743 C74.2063158,80.951061 74.22,79.8799316 74.22,78.6732095 C74.22,77.8376658 74.0763158,77.224096 73.79,76.8330239 C73.5031579,76.4419517 73.1,76.2461538 72.58,76.2461538 C71.98,76.2461538 71.54,76.5047745 71.26,77.0220159 C70.98,77.5392573 70.84,78.2554377 70.84,79.170557 L70.84,79.966313 C70.84,80.1521639 70.8431579,80.4207315 70.85,80.7720159 C70.8563158,81.1233003 70.8663158,81.5080902 70.88,81.9258621 C70.8931579,82.343634 70.91,82.7682116 70.93,83.1990716 C70.95,83.6299316 70.9731579,84.0047745 71,84.3230769 C70.8263158,84.2963772 70.6063158,84.2832891 70.34,84.2832891 L68.66,84.2832891 C68.3931579,84.2832891 68.1731579,84.2963772 68,84.3230769 C68.0531579,83.2488064 68.0931579,82.16773 68.12,81.0803714 C68.1463158,79.9930127 68.16,78.7993788 68.16,77.4994695 L68.16,76.206366" id="Fill-6" fill="#000000"></path>
      <path d="M82.0550459,79.3526627 C82.0550459,79.8784595 82.1099107,80.3715561 82.2201835,80.8319527 C82.3299131,81.2923492 82.4988532,81.6899408 82.7259174,82.0252465 C82.9529817,82.3605523 83.2419725,82.6237102 83.5928899,82.8142012 C83.9438073,83.0046922 84.3528489,83.1001972 84.8211009,83.1001972 C85.7706422,83.1001972 86.6169725,82.8043393 87.3600917,82.2126233 L87.6077982,82.3901381 L87.1536697,83.4946746 C86.8092709,83.7443372 86.3964268,83.9452092 85.9151376,84.0962525 C85.4333052,84.2472958 84.8004587,84.3230769 84.016055,84.3230769 C83.341381,84.3230769 82.7014727,84.2343195 82.0963303,84.0568047 C81.4906446,83.8792899 80.9572067,83.5865462 80.4965596,83.1790927 C80.0353694,82.7716392 79.6708716,82.2551853 79.4025229,81.6307692 C79.1341743,81.0063532 79,80.2599606 79,79.3921105 C79,78.5372366 79.1200507,77.7944773 79.3612385,77.1633136 C79.6018831,76.5321499 79.9354177,76.0063532 80.3623853,75.5854043 C80.7888098,75.1644555 81.2945437,74.8488737 81.8795872,74.6386588 C82.4640874,74.4284439 83.1007364,74.3230769 83.7889908,74.3230769 C85.1513761,74.3230769 86.1938073,74.704578 86.9162844,75.4670611 C87.6387615,76.2295443 88,77.3081283 88,78.7017751 L88,79.1159763 C88,79.2343195 87.9929382,79.313215 87.9793578,79.3526627 L82.0550459,79.3526627 Z M85.233945,78.4650888 C85.2062409,77.4788955 85.0791284,76.6899408 84.8520642,76.0982249 C84.625,75.5065089 84.2431193,75.2106509 83.706422,75.2106509 C83.4033076,75.2106509 83.1490826,75.3092702 82.9426606,75.5065089 C82.7362385,75.7037475 82.5711009,75.9570435 82.4472477,76.2658777 C82.3233945,76.5747119 82.2305046,76.9235129 82.168578,77.3112426 C82.1066514,77.6989723 82.0686263,78.0835877 82.0550459,78.4650888 L85.233945,78.4650888 L85.233945,78.4650888 Z" id="Fill-7" fill="#000000"></path>
      <path d="M89,70.9051864 C89,70.464599 89.1454031,70.0909428 89.4367089,69.7836911 C89.727515,69.4764393 90.0822785,69.3230769 90.5,69.3230769 C90.9177215,69.3230769 91.2719853,69.4764393 91.5632911,69.7836911 C91.8540973,70.0909428 92,70.464599 92,70.9051864 C92,71.3457739 91.8540973,71.71943 91.5632911,72.0266817 C91.2719853,72.3339335 90.9177215,72.4872959 90.5,72.4872959 C90.0822785,72.4872959 89.727515,72.3339335 89.4367089,72.0266817 C89.1454031,71.71943 89,71.3457739 89,70.9051864 Z M89.2278481,79.136161 C89.2278481,78.3219175 89.2183544,77.5572137 89.1993671,76.8431036 C89.1803797,76.1289936 89.1389074,75.4111944 89.0759494,74.6902331 C89.2528314,74.7171111 89.4616922,74.7402999 89.7025316,74.7603266 C89.9428714,74.7803533 90.2086942,74.7903666 90.5,74.7903666 C91.0946036,74.7903666 91.5692871,74.7571645 91.9240506,74.6902331 C91.8605929,75.4111944 91.8196203,76.1289936 91.8006329,76.8431036 C91.7816456,77.5572137 91.7721519,78.3219175 91.7721519,79.136161 L91.7721519,79.9372291 C91.7721519,80.7514727 91.7816456,81.5193386 91.8006329,82.2402999 C91.8196203,82.9612612 91.8605929,83.6553445 91.9240506,84.3230769 C91.7591606,84.296199 91.5537975,84.2830235 91.306962,84.2830235 L89.7025316,84.2830235 C89.4616922,84.2830235 89.2528314,84.296199 89.0759494,84.3230769 C89.1389074,83.6553445 89.1803797,82.9612612 89.1993671,82.2402999 C89.2183544,81.5193386 89.2278481,80.7514727 89.2278481,79.9372291 L89.2278481,79.136161 L89.2278481,79.136161 Z" id="Fill-8" fill="#000000"></path>
      <path d="M96.9058663,76.1044534 C97.2876786,75.5376518 97.7346521,75.0992329 98.2462483,74.788664 C98.7578445,74.478095 99.3410641,74.3230769 99.9959072,74.3230769 C100.609823,74.3230769 101.138113,74.4882165 101.581855,74.8190283 C102.025059,75.1498402 102.369714,75.6255487 102.61528,76.2461538 C103.024557,75.6255487 103.501687,75.1498402 104.047749,74.8190283 C104.593272,74.4882165 105.173261,74.3230769 105.787176,74.3230769 C106.810368,74.3230769 107.598226,74.6165992 108.15075,75.2036437 C108.703274,75.7906883 108.979536,76.738909 108.979536,78.0477733 C108.979536,78.7360324 108.965535,79.3433198 108.938608,79.8696356 C108.911144,80.3959514 108.897681,80.9222672 108.897681,81.448583 C108.897681,81.8806094 108.907913,82.3493927 108.928377,82.8554656 C108.94884,83.3615385 108.972535,83.8505647 109,84.3230769 C108.822288,84.2959088 108.597185,84.2825911 108.324693,84.2825911 L106.60573,84.2825911 C106.332699,84.2825911 106.107597,84.2959088 105.930423,84.3230769 C106.025741,83.6215001 106.087133,82.7947368 106.114598,81.8433198 C106.141524,80.8919028 106.155525,79.8019817 106.155525,78.5740891 C106.155525,77.7238866 106.012278,77.0995525 105.725784,76.7016194 C105.439291,76.3036863 105.036476,76.1044534 104.518417,76.1044534 C104.190996,76.1044534 103.921196,76.1784999 103.710095,76.3271255 C103.498456,76.4757511 103.331514,76.6680588 103.208731,76.9040486 C103.085948,77.1400384 103.004093,77.3930748 102.963165,77.6631579 C102.922237,77.933241 102.901774,78.1894737 102.901774,78.4323887 L102.901774,79.8898785 C102.901774,80.7129128 102.912005,81.4890688 102.932469,82.2178138 C102.952933,82.9465587 102.997092,83.6481355 103.065484,84.3230769 C102.887772,84.2959088 102.666439,84.2825911 102.400409,84.2825911 L100.671214,84.2825911 C100.411646,84.2825911 100.186544,84.2959088 99.9959072,84.3230769 C100.063761,83.6481355 100.108458,82.9465587 100.128922,82.2178138 C100.149386,81.4890688 100.159618,80.7129128 100.159618,79.8898785 L100.159618,78.6550607 C100.159618,77.8453441 100.057299,77.2178138 99.8526603,76.7724696 C99.6480218,76.3271255 99.2592087,76.1044534 98.686221,76.1044534 C98.0723056,76.1044534 97.622101,76.3676113 97.3356071,76.8939271 C97.0491132,77.4202429 96.9058663,78.1489879 96.9058663,79.0801619 L96.9058663,79.8898785 C96.9058663,80.7129128 96.9160982,81.4890688 96.9365621,82.2178138 C96.9570259,82.9465587 97.0011847,83.6481355 97.0695771,84.3230769 C96.8918647,84.2959088 96.6705321,84.2825911 96.404502,84.2825911 L94.675307,84.2825911 C94.4157392,84.2825911 94.1906369,84.2959088 94,84.3230769 C94.0678538,83.6481355 94.1125512,82.9465587 94.133015,82.2178138 C94.1534789,81.4890688 94.1637108,80.7129128 94.1637108,79.8898785 L94.1637108,79.0801619 C94.1637108,78.2571276 94.1534789,77.4841679 94.133015,76.7623482 C94.1125512,76.0405284 94.0678538,75.3149798 94,74.5862348 C94.2455662,74.6134029 94.4873627,74.6368421 94.7264666,74.657085 C94.965032,74.6773279 95.207367,74.6874494 95.4529332,74.6874494 C95.6984993,74.6874494 95.9402958,74.6773279 96.1793997,74.657085 C96.4179651,74.6368421 96.6737632,74.6134029 96.946794,74.5862348 L96.8649386,76.1044534 L96.9058663,76.1044534" id="Fill-9" fill="#000000"></path>
      <path d="M40.0401659,23.920545 C40.0401659,23.920545 41.275207,23.7625141 41.7839375,23.8747992 C42.2931897,23.9870843 44.6458726,24.8531352 44.6458726,27.7143259 C44.6458726,30.5755166 42.6386047,33.691948 38.4696236,33.691948 C34.3011642,33.691948 31.3228733,28.2274064 31.3228733,23.9444576 C31.3228733,19.6615088 34.9455562,11.4750931 39.8966778,11.7448893 C44.8472777,12.0152053 45.2829597,12.212224 46.6067025,12.212224 C47.9304453,12.212224 53.4617806,13.9640795 55.9443854,16.0278381 C58.4264684,18.0910768 58.5605645,18.6899307 59.3943607,22.7186786 C60.228157,26.7474264 60.4958275,30.0260474 59.8451742,32.4495342 C59.194521,34.8735408 58.4687321,40.9847614 53.9840772,45.4470545 C49.4994223,49.9088277 43.9743483,55.0370339 33.4574543,55.0370339 C24.7025939,55.0370339 16.9072775,49.9420974 15.2365544,46.9998119 C15.2365544,46.9998119 11.3571583,41.7879118 11.3571583,37.6484383 C11.3571583,33.5089649 11.0576596,30.9664351 11.0576596,30.9664351 C11.0576596,30.9664351 11.8361476,28.7456853 11.8361476,27.5199063 C11.8361476,26.2941273 11.6164804,26.0316089 10.0840277,25.4436716 C8.55105313,24.8557344 4.21719115,23.717808 3.20912212,23.717808 C2.20053132,23.717808 1.36360444,23.8009822 1.22846475,25.0355985 C1.09384684,26.2707346 0.00281560899,33.9840972 0.00281560899,37.105727 C0.00281560899,40.226837 -0.159456372,44.534738 1.97982055,48.5270972 C4.11909747,52.5189365 5.81330044,55.0952558 9.95410572,57.3440768 C14.0943892,59.5923781 17.2782594,61.4450822 19.2688305,63.0279902 C21.2599234,64.6108983 27.7779349,65.3230769 32.3252028,65.3230769 C36.8724707,65.3230769 43.0403713,63.5493882 48.5560534,61.3650271 C54.0712136,59.180666 59.4397551,55.1987036 60.927857,54.1184794 C62.4164807,53.0382551 67.4646525,48.0945916 69.2892992,44.9443707 C71.1144676,41.7946697 72.8451948,36.7382012 73.4645416,33.4143543 C74.0833666,30.0910272 74.2117232,24.415951 73.6059426,20.5031272 C73.0006837,16.5897835 72.0818382,13.0621599 67.3811685,9.03133266 C62.6810206,4.99998562 57.993917,2.31969867 51.82706,1.25195053 C45.6602029,0.18420239 43.4379638,0.329757151 41.1792004,0.329757151 C38.9209588,0.329757151 31.8843031,0.516379148 29.6286703,2.67266896 C27.3725158,4.82947862 25.4163819,7.34445695 24.2100384,9.48827064 C23.003695,11.6320843 18.4392085,18.8391244 18.4392085,23.7895457 C18.4392085,28.7394473 19.7227746,30.2100702 21.3261888,33.344696 C22.9301247,36.4793217 23.7858355,37.2824721 25.1221009,38.5545167 C26.4588881,39.8270812 32.0058766,44.9999934 37.4552932,44.9999934 C42.9047099,44.9999934 47.0658644,41.623123 49.6825653,37.9541033 C52.2987444,34.2856035 53.1539334,31.2497471 53.1539334,28.6510748 C53.1539334,26.0518826 51.8646277,21.4180428 49.5401207,19.6609889 C47.2156137,17.903935 45.6523763,17.7147138 43.2970846,17.4459574 C40.9417928,17.1777207 40.3125324,17.2556965 40.0495578,17.3565451 C39.7860615,17.4579136 39.780322,19.9125907 39.780322,20.8207485 C39.780322,21.7289062 40.0401659,23.920545 40.0401659,23.920545" id="Fill-10" fill="#F7E02C"></path>
      <path d="M78.1660517,16.9853768 C78.1660517,18.4660326 78.1729948,19.7364685 78.1863469,20.7961482 C78.2002331,21.855828 78.2472325,22.6983163 78.3284133,23.3230769 C78.098757,23.2957269 77.8482715,23.28232 77.5774908,23.28232 L75.7509225,23.28232 C75.4806759,23.28232 75.2301903,23.2957269 75,23.3230769 C75.0544766,22.4805886 75.095067,21.6214758 75.1217712,20.7452021 C75.1490095,19.8689285 75.1623616,18.8671664 75.1623616,17.7393797 L75.1623616,14.9679095 C75.1623616,13.8401228 75.1490095,12.8383608 75.1217712,11.9620871 C75.095067,11.0858135 75.0544766,10.2063222 75,9.32307692 C75.2301903,9.35042696 75.4806759,9.37402307 75.7509225,9.39440152 C76.0217032,9.41477998 76.3261313,9.42496921 76.6642066,9.42496921 C77.0028161,9.42496921 77.3072441,9.41477998 77.5774908,9.39440152 C77.8482715,9.37402307 78.098757,9.35042696 78.3284133,9.32307692 C78.2611187,9.73064606 78.2167897,10.3419998 78.1964945,11.1571381 C78.1761993,11.9722763 78.1660517,12.8759 78.1660517,13.8674728 L78.1660517,15.8238047 C78.6264323,15.280558 79.1199262,14.6858288 79.6476015,14.0406897 C80.1752768,13.3955507 80.6826568,12.7670362 81.1697417,12.1556825 C81.6568266,11.5443287 82.096912,10.9839212 82.4889299,10.4744597 C82.8814818,9.96499832 83.1656147,9.58102529 83.3413284,9.32307692 C83.5309283,9.35042696 83.7205283,9.37402307 83.9095941,9.39440152 C84.099194,9.41477998 84.2887939,9.42496921 84.4778598,9.42496921 C84.6674597,9.42496921 84.8602641,9.41477998 85.0562731,9.39440152 C85.2528161,9.37402307 85.4659157,9.35042696 85.695572,9.32307692 C85.4659157,9.55421153 85.1139542,9.92745906 84.6402214,10.4438921 C84.1670227,10.9603251 83.6628472,11.5169787 83.1282288,12.1149255 C82.5941445,12.7128724 82.0830258,13.2936584 81.595941,13.8572836 C81.1088561,14.4209088 80.7301903,14.8660172 80.4594096,15.1920726 C80.892552,15.8575901 81.3726937,16.5912145 81.900369,17.3929459 C82.4280443,18.1946773 82.9525151,18.9792479 83.4732472,19.7466577 C83.9945135,20.5140675 84.4778598,21.2208782 84.9243542,21.8660172 C85.3708487,22.5111563 85.7297534,22.9970216 86,23.3230769 C85.6079821,23.2957269 85.2560206,23.28232 84.9446494,23.28232 L83.148524,23.28232 C82.8579821,23.28232 82.5637017,23.2957269 82.2656827,23.3230769 C81.5756458,22.2907472 80.899495,21.2412567 80.2361624,20.1746053 C79.5733638,19.107954 78.896679,18.0450565 78.2066421,16.9853768 L78.1660517,16.9853768" id="Fill-11" fill="#000000"></path>
      <path d="M93.5790476,13.1542269 C93.5790476,12.55628 93.5161905,12.0811402 93.3904762,11.7277349 C93.2647619,11.3743295 93.0728822,11.1061919 92.8142857,10.9227858 C92.5562406,10.7393797 92.2210025,10.6203266 91.8085714,10.5661628 C91.3966917,10.511999 90.9043108,10.484649 90.3314286,10.484649 C90.2895238,12.332117 90.2685714,14.1801213 90.2685714,16.0275893 C90.352381,16.0409962 90.4328822,16.0511854 90.5095238,16.058157 C90.5867168,16.0651286 90.6600501,16.0683462 90.7295238,16.0683462 C91.6514286,16.0683462 92.357193,15.8270224 92.8457143,15.344911 C93.334787,14.8627996 93.5790476,14.1323928 93.5790476,13.1542269 Z M90.2685714,16.9038629 L90.2685714,17.7393797 C90.2685714,18.8671664 90.2829073,19.8689285 90.3104762,20.7452021 C90.3385965,21.6214758 90.3805013,22.4805886 90.4361905,23.3230769 C90.1990977,23.2957269 89.9405013,23.28232 89.6609524,23.28232 L87.7752381,23.28232 C87.4962406,23.28232 87.2376441,23.2957269 87,23.3230769 C87.0562406,22.4805886 87.0981454,21.6214758 87.1257143,20.7452021 C87.1538346,19.8689285 87.167619,18.8671664 87.167619,17.7393797 L87.167619,14.9679095 C87.167619,13.8401228 87.1538346,12.8383608 87.1257143,11.9620871 C87.0981454,11.0858135 87.0562406,10.2063222 87,9.32307692 C87.2376441,9.35042696 87.4962406,9.37402307 87.7752381,9.39440152 C88.054787,9.41477998 88.3690727,9.42496921 88.7180952,9.42496921 C89.0952381,9.42496921 89.5247619,9.4078084 90.0066667,9.37402307 C90.4885714,9.34023773 91.0857143,9.32307692 91.7980952,9.32307692 C92.3290727,9.32307692 92.7828571,9.3364838 93.16,9.36383384 C93.5371429,9.39118387 93.8619048,9.43194079 94.1342857,9.48610458 C94.4066667,9.54026837 94.6443108,9.61159297 94.8466667,9.70007838 C95.0495739,9.78856378 95.2414536,9.89367372 95.4228571,10.0159445 C95.8419048,10.3146497 96.1738346,10.6852159 96.4180952,11.1265704 C96.6629073,11.5679249 96.7847619,12.0945471 96.7847619,12.7059008 C96.7847619,13.6974736 96.5057644,14.5061766 95.9466667,15.1309372 C95.3881203,15.7556978 94.5847619,16.1975885 93.5371429,16.4555369 C94.207619,17.6101374 94.9271679,18.7615202 95.6952381,19.9096854 C96.4638596,21.0578505 97.2319298,22.1952902 98,23.3230769 C97.6790977,23.2957269 97.364812,23.28232 97.0571429,23.28232 L95.1609524,23.28232 C94.8466667,23.28232 94.5290727,23.2957269 94.207619,23.3230769 L90.4571429,16.9038629 L90.2685714,16.9038629 L90.2685714,16.9038629 Z" id="Fill-12" fill="#000000"></path>
      <path d="M99.1653747,14.9679095 C99.1653747,13.8401228 99.1517748,12.8383608 99.124031,11.9620871 C99.0968312,11.0858135 99.0554876,10.2063222 99,9.32307692 C99.620155,9.3364838 100.233782,9.35686226 100.839793,9.38421229 C101.446348,9.41156233 102.059432,9.42496921 102.679587,9.42496921 C103.699578,9.42496921 104.605875,9.41477998 105.397933,9.39440152 C106.190534,9.37402307 106.724738,9.35042696 107,9.32307692 C106.945056,9.54026837 106.917313,9.82556677 106.917313,10.1789721 C106.917313,10.3961636 106.924385,10.5661628 106.937984,10.6884335 C106.952128,10.8107043 106.9728,10.9463819 107,11.0960027 C106.600707,11.0686527 106.162791,11.0418389 105.687339,11.0144889 C105.211886,10.9871388 104.750578,10.9603251 104.302326,10.932975 C103.854617,10.905625 103.451516,10.8852465 103.093023,10.8718397 C102.735074,10.8584328 102.47994,10.8514612 102.328165,10.8514612 C102.273222,11.5984925 102.242214,12.3390886 102.235142,13.072713 C102.228614,13.8063375 102.224806,14.5469335 102.224806,15.2939648 C103.120767,15.280558 103.930233,15.2601795 104.653747,15.2328295 C105.377261,15.2054794 106.131783,15.1716941 106.917313,15.1309372 C106.875969,15.3620718 106.848769,15.5385063 106.834625,15.6607771 C106.821025,15.7830478 106.813953,15.9122901 106.813953,16.0479678 C106.813953,16.1568316 106.824289,16.2689131 106.844961,16.3842123 C106.865633,16.4995115 106.890113,16.666293 106.917313,16.8834845 C105.346253,16.7612137 103.782266,16.7000784 102.224806,16.7000784 C102.224806,17.1349976 102.221542,17.5693805 102.21447,18.0042996 C102.207942,18.4392188 102.204134,18.8736017 102.204134,19.3085209 C102.204134,20.1917661 102.224806,21.0406897 102.26615,21.855828 C103.05168,21.855828 103.837209,21.8354496 104.622739,21.7946926 C105.408269,21.7539357 106.20087,21.6858288 107,21.5909081 C106.9728,21.7405288 106.952128,21.8762065 106.937984,21.9984772 C106.924385,22.120748 106.917313,22.2907472 106.917313,22.5079386 C106.917313,22.7251301 106.924385,22.8951293 106.937984,23.0174001 C106.952128,23.1396708 106.9728,23.2415631 107,23.3230769 C106.627907,23.30967 106.169863,23.2994808 105.625323,23.2925092 C105.081327,23.2855377 104.333333,23.28232 103.382429,23.28232 L100.105943,23.28232 C99.7958656,23.28232 99.5619475,23.2855377 99.4031008,23.2925092 C99.244798,23.2994808 99.1104311,23.30967 99,23.3230769 C99.0554876,22.4805886 99.0968312,21.6214758 99.124031,20.7452021 C99.1517748,19.8689285 99.1653747,18.8671664 99.1653747,17.7393797 L99.1653747,14.9679095" id="Fill-13" fill="#000000"></path>
      <path d="M110.146341,14.9679095 C110.146341,13.8401228 110.134307,12.8383608 110.109756,11.9620871 C110.085687,11.0858135 110.049101,10.2063222 110,9.32307692 C110.207478,9.35042696 110.433248,9.37402307 110.676829,9.39440152 C110.920892,9.41477998 111.195282,9.42496921 111.5,9.42496921 C111.805199,9.42496921 112.079589,9.41477998 112.323171,9.39440152 C112.567234,9.37402307 112.793004,9.35042696 113,9.32307692 C112.95138,10.2063222 112.914795,11.0858135 112.890244,11.9620871 C112.866175,12.8383608 112.853659,13.8401228 112.853659,14.9679095 L112.853659,17.7393797 C112.853659,18.8671664 112.866175,19.8689285 112.890244,20.7452021 C112.914795,21.6214758 112.95138,22.4805886 113,23.3230769 C112.793004,23.2957269 112.567234,23.28232 112.323171,23.28232 L110.676829,23.28232 C110.433248,23.28232 110.207478,23.2957269 110,23.3230769 C110.049101,22.4805886 110.085687,21.6214758 110.109756,20.7452021 C110.134307,19.8689285 110.146341,18.8671664 110.146341,17.7393797 L110.146341,14.9679095" id="Fill-14" fill="#000000"></path>
      <path d="M121.516432,12.2291078 C121.116135,11.1031758 120.358537,10.5404682 119.244131,10.5404682 C118.668396,10.5404682 118.198913,10.7171863 117.835681,11.0706225 C117.472943,11.4240587 117.29108,11.8364009 117.29108,12.3076492 C117.29108,12.7918154 117.431925,13.1881393 117.713615,13.4955874 C117.995305,13.8030356 118.349148,14.0815474 118.774648,14.3300895 C119.200642,14.5786317 119.657277,14.8178728 120.14554,15.0467796 C120.633803,15.2756864 121.090932,15.5572985 121.516432,15.8910994 C121.942426,16.2249002 122.295775,16.6305251 122.577465,17.1084907 C122.859155,17.5864563 123,18.1982522 123,18.9443953 C123,19.599079 122.881394,20.197957 122.643192,20.7410292 C122.405486,21.2841015 122.067457,21.7491491 121.629108,22.1351386 C121.191253,22.5211282 120.668396,22.8156583 120.061033,23.0187291 C119.454164,23.2217999 118.774648,23.3230769 118.023474,23.3230769 C117.347418,23.3230769 116.743514,23.2476359 116.211268,23.0972705 C115.679516,22.9469051 115.27576,22.7603693 115,22.5376632 C115.125525,22.0793329 115.231777,21.6607901 115.319249,21.2810012 C115.407215,20.9012123 115.482333,20.4888701 115.544601,20.0439745 L115.901408,20.0439745 C115.951816,20.3317873 116.045713,20.6035818 116.183099,20.8588413 C116.320979,21.1141008 116.496417,21.3399072 116.70892,21.5362607 C116.921917,21.7326141 117.178404,21.8865965 117.478873,21.9976912 C117.779343,22.1087859 118.117371,22.1645916 118.492958,22.1645916 C119.244131,22.1645916 119.798122,21.9682382 120.15493,21.5755313 C120.511737,21.1828245 120.690141,20.7115762 120.690141,20.1617866 C120.690141,19.6641857 120.552755,19.2585608 120.276995,18.9443953 C120.00173,18.6302298 119.657277,18.3522347 119.244131,18.1098932 C118.830986,17.8675517 118.380282,17.6319276 117.892019,17.4030208 C117.403756,17.1741141 116.953052,16.8956022 116.539906,16.5685187 C116.126761,16.2414352 115.782802,15.8389107 115.507042,15.3609451 C115.231777,14.8829795 115.093897,14.2711835 115.093897,13.5250405 C115.093897,12.8445208 115.210032,12.2420258 115.441315,11.7185888 C115.673091,11.1951519 115.98295,10.756457 116.370892,10.4030208 C116.759328,10.0495846 117.206573,9.78140718 117.713615,9.59797173 C118.220657,9.41453629 118.755869,9.32307692 119.319249,9.32307692 C119.995305,9.32307692 120.586854,9.40833565 121.093897,9.57833639 C121.600939,9.74833713 122.036323,9.98396125 122.399061,10.2852088 C122.286385,10.5864563 122.189523,10.8773694 122.107981,11.1589816 C122.026934,11.4405937 121.923647,11.7971302 121.798122,12.2291078 L121.516432,12.2291078" id="Fill-15" fill="#000000"></path>
      <path d="M46,44.3808599 C46.2892562,44.2605769 46.5306655,44.1402939 46.7231405,44.0200109 C46.9161592,43.8997279 47.0743802,43.7593977 47.1983471,43.5990203 C47.322314,43.438643 47.4152893,43.2381713 47.4772727,42.9976052 C47.5392562,42.7570392 47.5843845,42.4563316 47.6115702,42.0954826 C47.6670291,41.2666904 47.7083515,40.4215439 47.7355372,39.5595156 C47.7632666,38.6974873 47.7768595,37.7120106 47.7768595,36.6025581 L47.7768595,33.876143 C47.7768595,32.7666904 47.7632666,31.7812137 47.7355372,30.9191854 C47.7083515,30.0571571 47.6670291,29.1919635 47.6115702,28.3230769 C47.8459113,28.3499823 48.1009134,28.3731948 48.3760331,28.393242 C48.6516964,28.4132892 48.9616137,28.4233128 49.3057851,28.4233128 C49.6505002,28.4233128 49.9604176,28.4132892 50.2355372,28.393242 C50.5112005,28.3731948 50.7662027,28.3499823 51,28.3230769 C50.9450848,29.1919635 50.9037625,30.0571571 50.8760331,30.9191854 C50.8488473,31.7812137 50.8347107,32.7666904 50.8347107,33.876143 L50.8347107,36.6025581 C50.8347107,37.1638788 50.841779,37.752105 50.8553719,38.366709 C50.8695085,38.981313 50.8760331,39.6096335 50.8760331,40.251143 C50.8760331,41.8148222 50.4938017,42.990747 49.7293388,43.7794448 C48.964876,44.5681427 47.8252501,45.0825109 46.3099174,45.3230769 L46,44.3808599" id="Fill-16" fill="#000000"></path>
      <path d="M60.980456,42.3230769 C60.1467512,42.3230769 59.3680782,42.2330769 58.6449511,42.0530769 C57.9218241,41.8730769 57.293331,41.5730769 56.7589577,41.1530769 C56.2250986,40.7330769 55.8049031,40.1930769 55.4983713,39.5330769 C55.1923538,38.8730769 55.0390879,38.069919 55.0390879,37.1230769 C55.0390879,36.589919 55.0426882,36.1130769 55.0488599,35.6930769 C55.055546,35.2730769 55.0586319,34.8830769 55.0586319,34.5230769 C55.0586319,34.1630769 55.0622321,33.8162348 55.0684039,33.4830769 C55.07509,33.149919 55.0781759,32.8030769 55.0781759,32.4430769 C55.0781759,31.3630769 55.0720041,30.489919 55.0586319,29.8230769 C55.045774,29.1562348 55.0262301,28.6562348 55,28.3230769 C55.2607578,28.349919 55.5276873,28.3730769 55.8013029,28.3930769 C56.0749186,28.4130769 56.3423624,28.4230769 56.6026059,28.4230769 C56.8633636,28.4230769 57.1302932,28.4130769 57.4039088,28.3930769 C57.6775244,28.3730769 57.9449683,28.349919 58.2052117,28.3230769 C58.07509,29.6162348 57.9969141,30.819919 57.970684,31.9330769 C57.9449683,33.0462348 57.9315961,34.1762348 57.9315961,35.3230769 C57.9315961,36.5362348 58.0164581,37.5162348 58.1856678,38.2630769 C58.3553917,39.009919 58.6058632,39.5862348 58.9381107,39.9930769 C59.2703583,40.399919 59.6776959,40.669919 60.1596091,40.8030769 C60.6420367,40.9362348 61.2021258,41.0030769 61.8403909,41.0030769 C62.6221498,41.0030769 63.2346991,40.8030769 63.6775244,40.4030769 C64.120864,40.0030769 64.4561975,39.469919 64.6840391,38.8030769 C64.912395,38.1362348 65.0522887,37.3730769 65.1042345,36.5130769 C65.1566947,35.6530769 65.1824104,34.7562348 65.1824104,33.8230769 C65.1824104,32.9030769 65.1695525,31.9862348 65.1433225,31.0730769 C65.1176067,30.159919 65.0785188,29.2430769 65.0260586,28.3230769 C65.2086405,28.349919 65.3845363,28.3730769 65.5537459,28.3930769 C65.7234699,28.4130769 65.8798217,28.4230769 66.0228013,28.4230769 C66.1925253,28.4230769 66.3550489,28.4130769 66.5114007,28.3930769 C66.6677524,28.3730769 66.8307903,28.349919 67,28.3230769 C66.9742842,28.6162348 66.9480542,29.009919 66.9218241,29.5030769 C66.8961083,29.9962348 66.8698783,30.5662348 66.8436482,31.2130769 C66.8179325,31.859919 66.7947883,32.5730769 66.7752443,33.3530769 C66.7557003,34.1330769 66.7459283,34.9562348 66.7459283,35.8230769 C66.7459283,38.1430769 66.257329,39.8062348 65.2801303,40.8130769 C64.3029316,41.819919 62.8700497,42.3230769 60.980456,42.3230769" id="Fill-17" fill="#000000"></path>
      <path d="M80.9475262,31.5040026 C80.5320761,30.9149423 80.011994,30.4405937 79.3883058,30.0804402 C78.7646177,29.7202866 78.0044978,29.5404682 77.107946,29.5404682 C76.5104158,29.5404682 75.9159631,29.668098 75.3245877,29.9233574 C74.7337252,30.1786169 74.2074884,30.5615061 73.7458771,31.072025 C73.2847787,31.582544 72.9113864,32.2206926 72.6251874,32.986471 C72.3395013,33.7522494 72.1964018,34.6523749 72.1964018,35.6863308 C72.1964018,36.4717445 72.3035982,37.1982522 72.517991,37.8658539 C72.7323838,38.5334556 73.0411505,39.1126982 73.4437781,39.6035818 C73.8469186,40.0944654 74.3403298,40.4773546 74.9250375,40.7522494 C75.5097451,41.0271442 76.1790815,41.1645916 76.9325337,41.1645916 C77.1017912,41.1645916 77.2931034,41.154774 77.5074963,41.1351386 C77.7218891,41.1155033 77.930127,41.0927676 78.1311844,41.0664149 C78.3327547,41.0400622 78.5179121,41.0044086 78.6866567,40.9584205 C78.8559141,40.9124325 78.9790105,40.8633441 79.0569715,40.8111555 C79.0831295,40.6540727 79.0995423,40.4577193 79.1056972,40.2220952 C79.1123649,39.986471 79.1154423,39.7244942 79.1154423,39.4366814 C79.1154423,38.3763729 79.095952,37.5940594 79.0569715,37.0902578 C79.017991,36.5864563 78.9923459,36.2428378 78.9790105,36.0594023 C79.1092875,36.085755 79.2811094,36.1084907 79.4955022,36.128126 C79.7098951,36.1477614 80.0186617,36.157579 80.4212894,36.157579 C80.8890555,36.157579 81.2368027,36.1477614 81.464018,36.128126 C81.6917462,36.1084907 81.8702359,36.085755 82,36.0594023 C81.9743549,36.1642964 81.9512744,36.3342971 81.9317841,36.5699212 C81.9122939,36.8055454 81.8963939,37.0773399 81.8830585,37.384788 C81.8702359,37.6922361 81.8604908,38.0198364 81.8538231,38.3665552 C81.8476683,38.713274 81.844078,39.0439745 81.844078,39.35814 L81.844078,40.0061064 C81.844078,40.3331899 81.8476683,40.6375377 81.8538231,40.9191499 C81.8604908,41.200762 81.8769037,41.4002158 81.9025487,41.5180278 C81.0449775,41.7665699 80.1776612,41.9629234 79.3005997,42.1070881 C78.4235382,42.2512529 77.5562219,42.3230769 76.6986507,42.3230769 C75.5815513,42.3230769 74.5516452,42.1758118 73.6094453,41.8812817 C72.6677582,41.5867515 71.8553223,41.154774 71.1731634,40.585349 C70.4910045,40.015924 69.9586128,39.328687 69.5749625,38.5236379 C69.1918251,37.7185888 69,36.8122627 69,35.8041428 C69,34.5603988 69.2046477,33.4706373 69.613943,32.5348581 C70.0232384,31.599079 70.5884558,30.8198659 71.3095952,30.1982522 C72.0307346,29.5766386 72.8852284,29.1084907 73.8725637,28.7943252 C74.8604119,28.4801597 75.9257082,28.3230769 77.0689655,28.3230769 C78.0568137,28.3230769 78.9107946,28.424354 79.631934,28.6274247 C80.3530735,28.8304955 81.0644678,29.1214087 81.7661169,29.5011975 C81.6625108,29.8417157 81.5614693,30.1755166 81.464018,30.5026001 C81.3665667,30.8296836 81.2855283,31.1634844 81.2203898,31.5040026 L80.9475262,31.5040026" id="Fill-18" fill="#000000"></path>
      <path d="M85.1653747,33.9679095 C85.1653747,32.8401228 85.1517748,31.8383608 85.124031,30.9620871 C85.0968312,30.0858135 85.0554876,29.2063222 85,28.3230769 C85.620155,28.3364838 86.2337821,28.3568623 86.8397933,28.3842123 C87.4463484,28.4115623 88.0594315,28.4249692 88.6795866,28.4249692 C89.6995784,28.4249692 90.6058752,28.41478 91.3979328,28.3944015 C92.1905345,28.3740231 92.7247382,28.350427 93,28.3230769 C92.9450564,28.5402684 92.9173127,28.8255668 92.9173127,29.1789721 C92.9173127,29.3961636 92.9243846,29.5661628 92.9379845,29.6884335 C92.9521284,29.8107043 92.9728002,29.9463819 93,30.0960027 C92.6007072,30.0686527 92.1627907,30.0418389 91.6873385,30.0144889 C91.2118863,29.9871388 90.750578,29.9603251 90.3023256,29.932975 C89.8546172,29.905625 89.4515164,29.8852465 89.0930233,29.8718397 C88.7350741,29.8584328 88.4799402,29.8514612 88.3281654,29.8514612 C88.2732218,30.5984925 88.2422141,31.3390886 88.2351421,32.072713 C88.2286142,32.8063375 88.2248062,33.5469335 88.2248062,34.2939648 C89.120767,34.280558 89.9302326,34.2601795 90.6537468,34.2328295 C91.377261,34.2054794 92.1317829,34.1716941 92.9173127,34.1309372 C92.875969,34.3620718 92.8487692,34.5385063 92.8346253,34.6607771 C92.8210254,34.7830478 92.8139535,34.9122901 92.8139535,35.0479678 C92.8139535,35.1568316 92.8242894,35.2689131 92.8449612,35.3842123 C92.8656331,35.4995115 92.8901129,35.666293 92.9173127,35.8834845 C91.3462532,35.7612137 89.7822657,35.7000784 88.2248062,35.7000784 C88.2248062,36.1349976 88.2215422,36.5693805 88.2144703,37.0042996 C88.2079423,37.4392188 88.2041344,37.8736017 88.2041344,38.3085209 C88.2041344,39.1917661 88.2248062,40.0406897 88.2661499,40.855828 C89.0516796,40.855828 89.8372093,40.8354496 90.622739,40.7946926 C91.4082687,40.7539357 92.2008704,40.6858288 93,40.5909081 C92.9728002,40.7405288 92.9521284,40.8762065 92.9379845,40.9984772 C92.9243846,41.120748 92.9173127,41.2907472 92.9173127,41.5079386 C92.9173127,41.7251301 92.9243846,41.8951293 92.9379845,42.0174001 C92.9521284,42.1396708 92.9728002,42.2415631 93,42.3230769 C92.627907,42.30967 92.1698626,42.2994808 91.625323,42.2925092 C91.0813273,42.2855377 90.3333333,42.28232 89.3824289,42.28232 L86.1059432,42.28232 C85.7958656,42.28232 85.5619475,42.2855377 85.4031008,42.2925092 C85.244798,42.2994808 85.1104311,42.30967 85,42.3230769 C85.0554876,41.4805886 85.0968312,40.6214758 85.124031,39.7452021 C85.1517748,38.8689285 85.1653747,37.8671664 85.1653747,36.7393797 L85.1653747,33.9679095" id="Fill-19" fill="#000000"></path>
      <path d="M95.3858521,32.3783899 C95.3858521,31.4409809 95.3731596,30.6531926 95.3472669,30.0144889 C95.3218819,29.3757851 95.3025893,28.8121599 95.2893891,28.3230769 C95.6498562,28.3911839 95.9392452,28.4249692 96.1575563,28.4249692 C96.376375,28.4249692 96.6657641,28.3911839 97.0257235,28.3230769 C98.4279912,29.9667604 99.8135048,31.5836301 101.18328,33.1731497 C102.553055,34.7626694 103.958369,36.379539 105.398714,38.0232225 L105.398714,34.2735864 C105.398714,33.6080689 105.395668,32.9522043 105.389068,32.3070653 C105.382975,31.6619262 105.376375,31.067197 105.369775,30.5239503 C105.363683,29.9807035 105.350482,29.511999 105.33119,29.1178367 C105.311897,28.7236745 105.289558,28.4587545 105.263666,28.3230769 C105.624133,28.3911839 105.913522,28.4249692 106.131833,28.4249692 C106.350652,28.4249692 106.640041,28.3911839 107,28.3230769 C106.93603,29.5591912 106.884244,30.6767887 106.845659,31.6753331 C106.807074,32.6738775 106.775089,33.6145042 106.749196,34.4977494 C106.723811,35.3809946 106.707565,36.2535144 106.700965,37.1163811 C106.694872,37.9792479 106.691318,38.8994961 106.691318,39.8776621 L106.691318,42.3230769 C106.434422,42.2957269 106.170418,42.28232 105.900322,42.28232 C105.617533,42.28232 105.366729,42.2957269 105.14791,42.3230769 C102.498731,39.0625238 99.6881029,35.7815922 96.7170418,32.4802822 C96.7043493,32.8744444 96.694703,33.2680704 96.6881029,33.6622327 C96.6820105,34.0563949 96.6784566,34.4569925 96.6784566,34.8645616 L96.6784566,37.2284627 C96.6784566,38.0436009 96.6820105,38.7364685 96.6881029,39.3070653 C96.694703,39.8776621 96.7043493,40.3597735 96.7170418,40.7539357 C96.730242,41.148098 96.7429345,41.4703994 96.755627,41.7219124 C96.7688272,41.9734255 96.7815197,42.1734561 96.7942122,42.3230769 C96.6398714,42.2957269 96.4855305,42.28232 96.3311897,42.28232 C96.1768489,42.28232 96.0291081,42.28232 95.8874598,42.28232 C95.5919783,42.28232 95.2959892,42.2957269 95,42.3230769 C95.0258927,42.2142131 95.0578778,41.8270224 95.096463,41.1615049 C95.1350482,40.4959874 95.1771873,39.6840667 95.221865,38.7262793 C95.2670503,37.7684918 95.3056355,36.7291905 95.3376206,35.6083753 C95.3701134,34.4875602 95.3858521,33.4107196 95.3858521,32.3783899" id="Fill-20" fill="#000000"></path>
      <path d="M114.12963,31.3187101 L114.12963,39.4497145 C114.12963,39.8438767 114.133325,40.2037174 114.13966,40.5297727 C114.146524,40.855828 114.149691,41.0665842 114.149691,41.1615049 C114.350309,41.1749118 114.591049,41.1888549 114.871914,41.2022618 C115.152778,41.2156687 115.50069,41.2226402 115.915123,41.2226402 C117.426616,41.2226402 118.623457,40.6997719 119.506173,39.653499 C120.388889,38.6072262 120.830247,37.0246781 120.830247,34.9053186 C120.830247,34.0628302 120.719907,33.3088273 120.499228,32.6433098 C120.278549,31.9777923 119.967593,31.4104132 119.566358,30.9417087 C119.165123,30.4730041 118.683642,30.1131635 118.121914,29.8616504 C117.560185,29.6101374 116.931936,29.484649 116.236111,29.484649 C115.75463,29.484649 115.363426,29.4948382 115.0625,29.5152167 C114.761574,29.5355951 114.457481,29.5591912 114.149691,29.5865413 C114.149691,29.681462 114.146524,29.8922181 114.13966,30.2182734 C114.133325,30.5443287 114.12963,30.911141 114.12963,31.3187101 Z M111.160494,33.9679095 C111.160494,32.8401228 111.147295,31.8383608 111.12037,30.9620871 C111.093973,30.0858135 111.05385,29.2063222 111,28.3230769 C111.227542,28.350427 111.475146,28.3740231 111.742284,28.3944015 C112.00995,28.41478 112.310876,28.4249692 112.645062,28.4249692 C113.08642,28.4249692 113.581628,28.4078084 114.12963,28.3740231 C114.67816,28.3402377 115.393519,28.3230769 116.276235,28.3230769 C117.426616,28.3230769 118.472994,28.4281869 119.415895,28.638943 C120.358796,28.8496992 121.171296,29.2063222 121.853395,29.708812 C122.535494,30.2113019 123.063962,30.8875449 123.438272,31.7364685 C123.813109,32.5853921 124,33.6552611 124,34.9460755 C124,36.0738622 123.816277,37.092785 123.448302,38.002844 C123.080856,38.912903 122.579313,39.6910383 121.943673,40.3361774 C121.308561,40.9813164 120.57314,41.4741533 119.736883,41.8136155 C118.901153,42.1530777 118.008406,42.3230769 117.058642,42.3230769 C116.055556,42.3230769 115.199764,42.3161053 114.490741,42.3026985 C113.782245,42.2892916 113.166667,42.28232 112.645062,42.28232 C112.310876,42.28232 112.00995,42.28232 111.742284,42.28232 C111.475146,42.28232 111.227542,42.2957269 111,42.3230769 C111.05385,41.4805886 111.093973,40.6214758 111.12037,39.7452021 C111.147295,38.8689285 111.160494,37.8671664 111.160494,36.7393797 L111.160494,33.9679095 L111.160494,33.9679095 Z" id="Fill-21" fill="#000000"></path>
      <path d="M82.5790476,51.1542269 C82.5790476,50.55628 82.5161905,50.0811402 82.3904762,49.7277349 C82.2647619,49.3743295 82.0728822,49.1061919 81.8142857,48.9227858 C81.5562406,48.7393797 81.2210025,48.6203266 80.8085714,48.5661628 C80.3966917,48.511999 79.9043108,48.484649 79.3314286,48.484649 C79.2895238,50.332117 79.2685714,52.1801213 79.2685714,54.0275893 C79.352381,54.0409962 79.4328822,54.0511854 79.5095238,54.058157 C79.5867168,54.0651286 79.6600501,54.0683462 79.7295238,54.0683462 C80.6514286,54.0683462 81.357193,53.8270224 81.8457143,53.344911 C82.334787,52.8627996 82.5790476,52.1323928 82.5790476,51.1542269 Z M79.2685714,54.9038629 L79.2685714,55.7393797 C79.2685714,56.8671664 79.2829073,57.8689285 79.3104762,58.7452021 C79.3385965,59.6214758 79.3805013,60.4805886 79.4361905,61.3230769 C79.1990977,61.2957269 78.9405013,61.28232 78.6609524,61.28232 L76.7752381,61.28232 C76.4962406,61.28232 76.2376441,61.2957269 76,61.3230769 C76.0562406,60.4805886 76.0981454,59.6214758 76.1257143,58.7452021 C76.1538346,57.8689285 76.167619,56.8671664 76.167619,55.7393797 L76.167619,52.9679095 C76.167619,51.8401228 76.1538346,50.8383608 76.1257143,49.9620871 C76.0981454,49.0858135 76.0562406,48.2063222 76,47.3230769 C76.2376441,47.350427 76.4962406,47.3740231 76.7752381,47.3944015 C77.054787,47.41478 77.3690727,47.4249692 77.7180952,47.4249692 C78.0952381,47.4249692 78.5247619,47.4078084 79.0066667,47.3740231 C79.4885714,47.3402377 80.0857143,47.3230769 80.7980952,47.3230769 C81.3290727,47.3230769 81.7828571,47.3364838 82.16,47.3638338 C82.5371429,47.3911839 82.8619048,47.4319408 83.1342857,47.4861046 C83.4066667,47.5402684 83.6443108,47.611593 83.8466667,47.7000784 C84.0495739,47.7885638 84.2414536,47.8936737 84.4228571,48.0159445 C84.8419048,48.3146497 85.1738346,48.6852159 85.4180952,49.1265704 C85.6629073,49.5679249 85.7847619,50.0945471 85.7847619,50.7059008 C85.7847619,51.6974736 85.5057644,52.5061766 84.9466667,53.1309372 C84.3881203,53.7556978 83.5847619,54.1975885 82.5371429,54.4555369 C83.207619,55.6101374 83.9271679,56.7615202 84.6952381,57.9096854 C85.4638596,59.0578505 86.2319298,60.1952902 87,61.3230769 C86.6790977,61.2957269 86.364812,61.28232 86.0571429,61.28232 L84.1609524,61.28232 C83.8466667,61.28232 83.5290727,61.2957269 83.207619,61.3230769 L79.4571429,54.9038629 L79.2685714,54.9038629 L79.2685714,54.9038629 Z" id="Fill-22" fill="#000000"></path>
      <path d="M89.1463415,52.9679095 C89.1463415,51.8401228 89.1343068,50.8383608 89.1097561,49.9620871 C89.0856868,49.0858135 89.0491014,48.2063222 89,47.3230769 C89.2074775,47.350427 89.4332478,47.3740231 89.6768293,47.3944015 C89.9208922,47.41478 90.1952824,47.4249692 90.5,47.4249692 C90.805199,47.4249692 91.0795892,47.41478 91.3231707,47.3944015 C91.5672336,47.3740231 91.7930039,47.350427 92,47.3230769 C91.95138,48.2063222 91.9147946,49.0858135 91.8902439,49.9620871 C91.8661746,50.8383608 91.8536585,51.8401228 91.8536585,52.9679095 L91.8536585,55.7393797 C91.8536585,56.8671664 91.8661746,57.8689285 91.8902439,58.7452021 C91.9147946,59.6214758 91.95138,60.4805886 92,61.3230769 C91.7930039,61.2957269 91.5672336,61.28232 91.3231707,61.28232 L89.6768293,61.28232 C89.4332478,61.28232 89.2074775,61.2957269 89,61.3230769 C89.0491014,60.4805886 89.0856868,59.6214758 89.1097561,58.7452021 C89.1343068,57.8689285 89.1463415,56.8671664 89.1463415,55.7393797 L89.1463415,52.9679095" id="Fill-23" fill="#000000"></path>
      <path d="M95.3858521,51.3783899 C95.3858521,50.4409809 95.3731596,49.6531926 95.3472669,49.0144889 C95.3218819,48.3757851 95.3025893,47.8121599 95.2893891,47.3230769 C95.6498562,47.3911839 95.9392452,47.4249692 96.1575563,47.4249692 C96.376375,47.4249692 96.6657641,47.3911839 97.0257235,47.3230769 C98.4279912,48.9667604 99.8135048,50.5836301 101.18328,52.1731497 C102.553055,53.7626694 103.958369,55.379539 105.398714,57.0232225 L105.398714,53.2735864 C105.398714,52.6080689 105.395668,51.9522043 105.389068,51.3070653 C105.382975,50.6619262 105.376375,50.067197 105.369775,49.5239503 C105.363683,48.9807035 105.350482,48.511999 105.33119,48.1178367 C105.311897,47.7236745 105.289558,47.4587545 105.263666,47.3230769 C105.624133,47.3911839 105.913522,47.4249692 106.131833,47.4249692 C106.350652,47.4249692 106.640041,47.3911839 107,47.3230769 C106.93603,48.5591912 106.884244,49.6767887 106.845659,50.6753331 C106.807074,51.6738775 106.775089,52.6145042 106.749196,53.4977494 C106.723811,54.3809946 106.707565,55.2535144 106.700965,56.1163811 C106.694872,56.9792479 106.691318,57.8994961 106.691318,58.8776621 L106.691318,61.3230769 C106.434422,61.2957269 106.170418,61.28232 105.900322,61.28232 C105.617533,61.28232 105.366729,61.2957269 105.14791,61.3230769 C102.498731,58.0625238 99.6881029,54.7815922 96.7170418,51.4802822 C96.7043493,51.8744444 96.694703,52.2680704 96.6881029,52.6622327 C96.6820105,53.0563949 96.6784566,53.4569925 96.6784566,53.8645616 L96.6784566,56.2284627 C96.6784566,57.0436009 96.6820105,57.7364685 96.6881029,58.3070653 C96.694703,58.8776621 96.7043493,59.3597735 96.7170418,59.7539357 C96.730242,60.148098 96.7429345,60.4703994 96.755627,60.7219124 C96.7688272,60.9734255 96.7815197,61.1734561 96.7942122,61.3230769 C96.6398714,61.2957269 96.4855305,61.28232 96.3311897,61.28232 C96.1768489,61.28232 96.0291081,61.28232 95.8874598,61.28232 C95.5919783,61.28232 95.2959892,61.2957269 95,61.3230769 C95.0258927,61.2142131 95.0578778,60.8270224 95.096463,60.1615049 C95.1350482,59.4959874 95.1771873,58.6840667 95.221865,57.7262793 C95.2670503,56.7684918 95.3056355,55.7291905 95.3376206,54.6083753 C95.3701134,53.4875602 95.3858521,52.4107196 95.3858521,51.3783899" id="Fill-24" fill="#000000"></path>
      <path d="M121.947526,50.5040026 C121.532076,49.9149423 121.011994,49.4405937 120.388306,49.0804402 C119.764618,48.7202866 119.004498,48.5404682 118.107946,48.5404682 C117.510416,48.5404682 116.915963,48.668098 116.324588,48.9233574 C115.733725,49.1786169 115.207488,49.5615061 114.745877,50.072025 C114.284779,50.582544 113.911386,51.2206926 113.625187,51.986471 C113.339501,52.7522494 113.196402,53.6523749 113.196402,54.6863308 C113.196402,55.4717445 113.303598,56.1982522 113.517991,56.8658539 C113.732384,57.5334556 114.04115,58.1126982 114.443778,58.6035818 C114.846919,59.0944654 115.34033,59.4773546 115.925037,59.7522494 C116.509745,60.0271442 117.179082,60.1645916 117.932534,60.1645916 C118.101791,60.1645916 118.293103,60.154774 118.507496,60.1351386 C118.721889,60.1155033 118.930127,60.0927676 119.131184,60.0664149 C119.332755,60.0400622 119.517912,60.0044086 119.686657,59.9584205 C119.855914,59.9124325 119.97901,59.8633441 120.056972,59.8111555 C120.083129,59.6540727 120.099542,59.4577193 120.105697,59.2220952 C120.112365,58.986471 120.115442,58.7244942 120.115442,58.4366814 C120.115442,57.3763729 120.095952,56.5940594 120.056972,56.0902578 C120.017991,55.5864563 119.992346,55.2428378 119.97901,55.0594023 C120.109287,55.085755 120.281109,55.1084907 120.495502,55.128126 C120.709895,55.1477614 121.018662,55.157579 121.421289,55.157579 C121.889055,55.157579 122.236803,55.1477614 122.464018,55.128126 C122.691746,55.1084907 122.870236,55.085755 123,55.0594023 C122.974355,55.1642964 122.951274,55.3342971 122.931784,55.5699212 C122.912294,55.8055454 122.896394,56.0773399 122.883058,56.384788 C122.870236,56.6922361 122.860491,57.0198364 122.853823,57.3665552 C122.847668,57.713274 122.844078,58.0439745 122.844078,58.35814 L122.844078,59.0061064 C122.844078,59.3331899 122.847668,59.6375377 122.853823,59.9191499 C122.860491,60.200762 122.876904,60.4002158 122.902549,60.5180278 C122.044978,60.7665699 121.177661,60.9629234 120.3006,61.1070881 C119.423538,61.2512529 118.556222,61.3230769 117.698651,61.3230769 C116.581551,61.3230769 115.551645,61.1758118 114.609445,60.8812817 C113.667758,60.5867515 112.855322,60.154774 112.173163,59.585349 C111.491004,59.015924 110.958613,58.328687 110.574963,57.5236379 C110.191825,56.7185888 110,55.8122627 110,54.8041428 C110,53.5603988 110.204648,52.4706373 110.613943,51.5348581 C111.023238,50.599079 111.588456,49.8198659 112.309595,49.1982522 C113.030735,48.5766386 113.885228,48.1084907 114.872564,47.7943252 C115.860412,47.4801597 116.925708,47.3230769 118.068966,47.3230769 C119.056814,47.3230769 119.910795,47.424354 120.631934,47.6274247 C121.353073,47.8304955 122.064468,48.1214087 122.766117,48.5011975 C122.662511,48.8417157 122.561469,49.1755166 122.464018,49.5026001 C122.366567,49.8296836 122.285528,50.1634844 122.22039,50.5040026 L121.947526,50.5040026" id="Fill-25" fill="#000000"></path>
      <polygon id="Fill-26" fill="#000000" points="126 19.3230769 131 19.3230769 131 17.3230769 126 17.3230769"></polygon>
      <polygon id="Fill-27" fill="#000000" points="126 38.3230769 131 38.3230769 131 36.3230769 126 36.3230769"></polygon>
    </g>
  </g>
</svg>
