<?xml version="1.0" encoding="UTF-8"?>
<svg preserveAspectRatio="xMidYMid slice" xmlns="http://www.w3.org/2000/svg" xmlns:xlink="http://www.w3.org/1999/xlink" width="120px" height="38px" viewBox="0 0 256 82" version="1.1">
  <title>Group 13</title>
  <desc>Created with Sketch.</desc>
  <g id="Page-1" stroke="none" stroke-width="1" fill="none" fill-rule="evenodd">
    <g id="Desktop-HD" transform="translate(-592.000000, -154.000000)" fill="#534842">
      <g id="Group-13" transform="translate(592.000000, 154.000000)">
        <path d="M46.2173116,69.9810032 C45.5803058,70.2312985 45.0409058,70.5797094 44.5984693,71.0242337 C44.1560328,71.4667557 43.8144128,71.9893721 43.5742513,72.5867433 C43.334732,73.186117 43.2152934,73.8208656 43.2152934,74.4969965 C43.2152934,75.1924834 43.334732,75.8392463 43.5742513,76.437285 C43.8144128,77.0359912 44.1560328,77.5579401 44.5984693,78.0011295 C45.0409058,78.4456538 45.5803058,78.7960672 46.2173116,79.0577091 C46.8530331,79.3180161 47.5683803,79.4488371 48.362069,79.4488371 C49.1551155,79.4488371 49.8698205,79.3180161 50.5068263,79.0577091 C51.14319,78.7960672 51.68259,78.4456538 52.1250265,78.0011295 C52.567463,77.5579401 52.909083,77.0359912 53.1486023,76.437285 C53.3881216,75.8392463 53.5088445,75.1924834 53.5088445,74.4969965 C53.5088445,73.8208656 53.3881216,73.186117 53.1486023,72.5867433 C52.909083,71.9893721 52.567463,71.4667557 52.1250265,71.0242337 C51.68259,70.5797094 51.14319,70.2312985 50.5068263,69.9810032 C49.8698205,69.7300406 49.1551155,69.6045592 48.362069,69.6045592 C47.5683803,69.6045592 46.8530331,69.7300406 46.2173116,69.9810032 M51.264555,68.5206141 C52.1250265,68.869025 52.8615644,69.3369102 53.4728845,69.926272 C54.0835624,70.5142989 54.5510425,71.2051137 54.8753246,71.9960466 C55.1996068,72.7863121 55.362069,73.6353134 55.362069,74.5430508 C55.362069,75.4501207 55.1996068,76.3004569 54.8753246,77.0907224 C54.5510425,77.8816553 54.0835624,78.5724701 53.4728845,79.160497 C52.8615644,79.7498588 52.1250265,80.2037275 51.264555,80.5214355 C50.4034413,80.841146 49.4357319,81 48.362069,81 C47.2877639,81 46.3200545,80.841146 45.459583,80.5214355 C44.5984693,80.2037275 43.8625735,79.7498588 43.2512534,79.160497 C42.6399334,78.5724701 42.1718112,77.8816553 41.847529,77.0907224 C41.523889,76.3004569 41.362069,75.4501207 41.362069,74.5430508 C41.362069,73.6353134 41.523889,72.7863121 41.847529,71.9960466 C42.1718112,71.2051137 42.6399334,70.5142989 43.2512534,69.926272 C43.8625735,69.3369102 44.5984693,68.869025 45.459583,68.5206141 C46.3200545,68.1742055 47.2877639,68 48.362069,68 C49.4357319,68 50.4034413,68.1742055 51.264555,68.5206141" id="Fill-1"></path>
        <path d="M90.1695063,78.8570983 C89.7820747,79.4051567 89.2789518,79.8403597 88.6601376,80.1633831 C88.0399781,80.4870822 87.3525561,80.7060352 86.5978718,80.8236211 C85.8431874,80.9405313 85.0972472,81 84.362069,81 C83.6255455,81 82.8802779,80.9405313 82.1255935,80.8236211 C81.3709092,80.7060352 80.6834872,80.4870822 80.064673,80.1633831 C79.4445135,79.8403597 78.9413906,79.4051567 78.553959,78.8570983 C78.1665275,78.3103914 77.9734844,77.6244737 77.9734844,76.8040755 L77.9734844,69.1724801 C77.9734844,68.8413474 77.9337995,68.6217186 77.8564477,68.5129178 C77.779096,68.4061444 77.6136304,68.3520819 77.362069,68.3520819 L77.362069,68 L80.3633181,68 L80.3633181,68.3520819 C80.1104114,68.3520819 79.9462911,68.4061444 79.8689393,68.5129178 C79.7915876,68.6196912 79.7525754,68.8399958 79.7525754,69.1718043 L79.7525754,76.4114467 C79.7525754,77.5244581 80.170275,78.3049852 81.0070195,78.7550554 C81.8424187,79.2044498 82.9609928,79.4294848 84.362069,79.4294848 C85.7624725,79.4294848 86.880374,79.2044498 87.7171185,78.7550554 C88.5531903,78.3049852 88.9715626,77.5244581 88.9715626,76.4114467 L88.9715626,69.1718043 C88.9715626,68.8399958 88.9325504,68.6196912 88.854526,68.5129178 C88.7771742,68.4061444 88.6117086,68.3520819 88.3601472,68.3520819 L88.3601472,68 L91.362069,68 L91.362069,68.3520819 C91.1098349,68.3520819 90.9443693,68.4061444 90.8670176,68.5129178 C90.7896658,68.6217186 90.7506536,68.8413474 90.7506536,69.1724801 L90.7506536,76.8040755 C90.7506536,77.6244737 90.5569378,78.3103914 90.1695063,78.8570983" id="Fill-2"></path>
        <path d="M112.374195,70.298 C112.10046,70.298 111.918391,70.3513333 111.827356,70.456 C111.735057,70.562 111.690172,70.7406667 111.690172,70.9886667 L111.362069,70.9886667 L111.362069,68 L111.690172,68 C111.690172,68.2506667 111.735057,68.4293333 111.827356,68.5353333 C111.918391,68.642 112.10046,68.6946667 112.374195,68.6946667 L122.362069,68.6946667 L122.362069,68.9246667 L114.454713,79.8093333 L121.29431,79.8093333 C121.585747,79.8093333 121.777931,79.756 121.87023,79.65 C121.960632,79.5433333 122.006782,79.3673333 122.006782,79.1173333 L122.334885,79.1173333 L122.334885,82 L122.006782,82 C122.006782,81.756 121.960632,81.5973333 121.87023,81.524 C121.777931,81.4486667 121.595862,81.4126667 121.322126,81.4126667 L111.444253,81.4126667 L111.444253,81.1806667 L119.160057,70.298 L112.374195,70.298 Z" id="Fill-3"></path>
        <path d="M144.894703,69.2013333 C144.808923,69.094 144.631378,69.0406667 144.362069,69.0406667 L144.362069,68.6946667 L155.980944,68.6946667 C156.268872,68.6946667 156.460381,68.642 156.556135,68.536 C156.652555,68.43 156.700432,68.2506667 156.700432,68 L157.045547,68 L157.045547,70.9893333 L156.700432,70.9893333 C156.700432,70.7413333 156.652555,70.562 156.556135,70.4566667 C156.460381,70.352 156.268872,70.2986667 155.980944,70.2986667 L146.94345,70.2986667 L146.94345,74.0926667 L153.303808,74.0926667 C153.591736,74.0926667 153.78391,74.0386667 153.88033,73.934 C153.976084,73.8286667 154.023962,73.6493333 154.023962,73.3986667 L154.369742,73.3986667 L154.369742,76.388 L154.023962,76.388 C154.023962,76.1373333 153.976084,75.9593333 153.88033,75.8533333 C153.78391,75.748 153.591736,75.6946667 153.303808,75.6946667 L146.94345,75.6946667 L146.94345,79.8093333 L156.297465,79.8093333 C156.585394,79.8093333 156.777568,79.756 156.872657,79.6506667 C156.968412,79.544 157.016289,79.3673333 157.016289,79.1173333 L157.362069,79.1173333 L157.362069,82 L157.016289,82 C157.016289,81.756 156.968412,81.598 156.872657,81.524 C156.777568,81.4486667 156.585394,81.4126667 156.297465,81.4126667 L144.362069,81.4126667 L144.362069,81.0653333 C144.631378,81.0653333 144.808923,81.014 144.894703,80.9066667 C144.981148,80.8013333 145.024371,80.5846667 145.024371,80.2553333 L145.024371,69.8513333 C145.024371,69.5233333 144.981148,69.306 144.894703,69.2013333" id="Fill-4"></path>
        <path d="M186.088852,73.6688159 C186.790064,73.6688159 187.285353,73.5344656 187.577412,73.2657651 C187.868798,72.9970645 188.015501,72.5853646 188.015501,72.0318184 C188.015501,71.4281071 187.865434,70.9875767 187.563953,70.710227 C187.262473,70.4334539 186.671625,70.2939141 185.797466,70.2939141 L179.870817,70.2939141 L179.870817,73.6688159 L186.088852,73.6688159 Z M180.002042,79.5623526 C180.089525,79.6551869 180.289391,79.6995859 180.598274,79.6995859 L180.598274,80 L177.362069,80 L177.362069,79.6995859 C177.672298,79.6995859 177.87149,79.6551869 177.959646,79.5623526 C178.04713,79.4712481 178.090871,79.2838497 178.090871,78.999004 L178.090871,70.0004194 C178.090871,69.7167269 178.04713,69.5287519 177.959646,69.438224 C177.87149,69.3453897 177.672298,69.2992609 177.362069,69.2992609 L177.362069,69 L186.284007,69 C187.566645,69 188.498677,69.2761965 189.082123,69.8268596 C189.665568,70.3763695 189.957628,71.1265398 189.957628,72.0762174 C189.957628,73.0443466 189.650763,73.7754888 189.039054,74.2661844 C188.427345,74.7586098 187.557224,75.0215443 186.428691,75.0544111 L189.634613,79.2504062 C189.768529,79.4337684 189.884949,79.5554332 189.982527,79.6136709 C190.080104,79.6707554 190.206618,79.6995859 190.362069,79.6995859 L190.362069,80 L187.216039,80 L187.216039,79.6995859 C187.428691,79.6995859 187.560588,79.6874771 187.609041,79.6626828 C187.657493,79.6378886 187.681719,79.5842638 187.681719,79.5006552 C187.681719,79.4164701 187.653455,79.3340148 187.593563,79.2504062 C187.536362,79.1667977 187.458973,79.0514756 187.362069,78.9009802 L184.498004,75.0544111 L179.870817,75.0544111 L179.870817,79.0001573 C179.870817,79.2838497 179.914559,79.4712481 180.002042,79.5623526 L180.002042,79.5623526 Z" id="Fill-5"></path>
        <path d="M208.362069,79.6995859 C208.745517,79.6995859 208.99089,79.6551869 209.099021,79.5623526 C209.207983,79.4712481 209.261216,79.2838497 209.261216,78.999004 L209.261216,70.0004194 C209.261216,69.7173036 209.207983,69.5287519 209.099021,69.438224 C208.99089,69.3453897 208.745517,69.2992609 208.362069,69.2992609 L208.362069,69 L212.362069,69 L212.362069,69.2992609 C211.976958,69.2992609 211.731584,69.3453897 211.62179,69.438224 C211.514492,69.5287519 211.462922,69.7173036 211.462922,70.0004194 L211.462922,78.999004 C211.462922,79.2838497 211.514492,79.4712481 211.62179,79.5623526 C211.731584,79.6551869 211.976958,79.6995859 212.362069,79.6995859 L212.362069,80 L208.362069,80 L208.362069,79.6995859 Z" id="Fill-6"></path>
        <path d="M38.9900784,1.04940842 C39.7896351,1.04940842 40.3340141,1.23960538 40.6212526,1.61534414 C40.9078367,1.99440801 41.0511288,2.50448169 41.0511288,3.14423511 L41.0511288,34.4053005 L40.9248485,34.4053005 L13.9381749,3.14423511 C13.7680565,2.97066375 13.6103698,2.78246186 13.467732,2.57696934 C13.3231313,2.37613199 13.2518125,2.18460498 13.2518125,2.00903855 C13.2518125,1.65990077 13.3650066,1.41384176 13.5946665,1.2675364 C13.8236721,1.12189607 14.2535484,1.04940842 14.8849495,1.04940842 L14.8849495,0 L0.362068966,0 L0.362068966,1.04940842 C1.16293425,1.04940842 1.70665896,1.23960538 1.9932431,1.61800423 C2.28048155,1.99839816 2.42377362,2.50847183 2.42377362,3.14822525 L2.42377362,42.8511097 C2.42377362,43.4935232 2.28048155,44.0029319 1.9932431,44.3819958 C1.70665896,44.7623897 1.16293425,44.9512566 0.362068966,44.9512566 L0.362068966,46 L10.7320966,46 L10.7320966,44.9512566 C9.92926842,44.9512566 9.38554371,44.7623897 9.09765096,44.3819958 C8.81237542,44.0029319 8.67104625,43.4935232 8.67104625,42.8511097 L8.67104625,7.17095752 L39.2288985,42.5870951 C39.3420927,42.7639915 39.5135198,42.9821195 39.7431797,43.2461342 C39.971531,43.5094838 40.0873424,43.842661 40.0873424,44.2489909 C40.0873424,44.717168 39.5135198,44.9512566 38.3704547,44.9512566 L38.3704547,46 L49.362069,46 L49.362069,44.9512566 C48.5592408,44.9512566 48.0155161,44.7623897 47.7282776,44.3819958 C47.4416935,44.0029319 47.2977471,43.4935232 47.2977471,42.8511097 L47.2977471,3.14822525 C47.2977471,2.50847183 47.4416935,1.99839816 47.7282776,1.61800423 C48.0155161,1.23960538 48.5592408,1.04940842 49.362069,1.04940842 L49.362069,0 L38.9900784,0 L38.9900784,1.04940842 Z" id="Fill-7"></path>
        <path d="M68.362069,1.04940842 C69.1355065,1.04940842 69.659978,1.23960538 69.9373792,1.61800423 C70.2141485,1.99839816 70.3525331,2.50847183 70.3525331,3.14822525 L70.3525331,42.8511097 C70.3525331,43.4935232 70.2141485,44.0029319 69.9373792,44.3819958 C69.659978,44.7623897 69.1355065,44.9512566 68.362069,44.9512566 L68.362069,46 L79.362069,46 L79.362069,44.9512566 C78.5867358,44.9512566 78.0622643,44.7623897 77.7842312,44.3819958 C77.5080938,44.0029319 77.370341,43.4935232 77.370341,42.8511097 L77.370341,3.14822525 C77.370341,2.50847183 77.5080938,1.99839816 77.7842312,1.61800423 C78.0622643,1.23960538 78.5867358,1.04940842 79.362069,1.04940842 L79.362069,0 L68.362069,0 L68.362069,1.04940842 Z" id="Fill-8"></path>
        <path d="M141.601075,42.8511052 L121.43154,15.7413485 L137.499099,3.1482298 C138.55901,2.33224375 139.312993,1.77827767 139.7585,1.48566654 C140.205919,1.19505048 140.846454,1.04940993 141.684567,1.04940993 L141.684567,0 L129.130711,0 L129.130711,1.04940993 C129.577493,1.04940993 129.897442,1.13852333 130.09247,1.31209493 C130.286862,1.48832664 130.386288,1.66189824 130.386288,1.8367999 C130.386288,2.07155383 130.286862,2.2757166 130.09247,2.45061826 C129.897442,2.62418986 129.604899,2.85694872 129.213567,3.1482298 L106.450023,20.9883982 L106.450023,3.1482298 C106.450023,2.50847546 106.588965,1.99840105 106.867486,1.6186716 C107.14792,1.23960717 107.676919,1.04940993 108.458946,1.04940993 L108.458946,0 L97.362069,0 L97.362069,1.04940993 C98.1421837,1.04940993 98.6730951,1.23960717 98.9528911,1.6186716 C99.2320498,1.99840105 99.3716292,2.50847546 99.3716292,3.1482298 L99.3716292,42.8511052 C99.3716292,43.4935196 99.2320498,44.002929 98.9528911,44.3819934 C98.6730951,44.7623879 98.1421837,44.9512551 97.362069,44.9512551 L97.362069,46 L108.458946,46 L108.458946,44.9512551 C107.676919,44.9512551 107.14792,44.7623879 106.867486,44.3839885 C106.588965,44.0069192 106.450023,43.4975098 106.450023,42.8550953 L106.450023,27.4863605 L116.325103,19.800663 L132.813949,42.0697004 C133.538615,43.0000708 133.900629,43.7296036 133.900629,44.2509834 C133.900629,44.7171662 133.538615,44.9512551 132.813949,44.9512551 L132.813949,46 L144.362069,46 L144.362069,44.9512551 C143.749577,44.9512551 143.260731,44.790319 142.898079,44.4717718 C142.53479,44.1498996 142.102668,43.6105641 141.601075,42.8511052" id="Fill-9"></path>
        <path d="M189.949998,24.7461536 C189.277712,26.3316065 188.305402,27.7314798 187.061054,28.9072449 C185.814754,30.0842944 184.270382,31.0340249 182.472195,31.7294666 C180.674659,32.4249082 178.619402,32.776803 176.361744,32.776803 C174.105387,32.776803 172.048828,32.4249082 170.24999,31.7294666 C168.450502,31.0340249 166.908734,30.0842944 165.663084,28.9072449 C164.419387,27.7321219 163.447077,26.3335329 162.772188,24.7461536 C162.0986,23.1587744 161.756924,21.4159963 161.756924,19.5679067 C161.756924,17.7737571 162.0986,16.0592334 162.772188,14.4721752 C163.445775,12.8860802 164.419387,11.4862069 165.663084,10.3091575 C166.908734,9.1327502 168.450502,8.19778894 170.244133,7.53124376 C172.05013,6.86084572 174.10799,6.51986741 176.361744,6.51986741 C178.615497,6.51986741 180.673357,6.86084572 182.478703,7.53124376 C184.271684,8.19778894 185.814103,9.1327502 187.061054,10.3097996 C188.306704,11.4874912 189.277712,12.8880067 189.949998,14.4715331 C190.624888,16.0624441 190.967864,17.7763257 190.967864,19.5679067 C190.967864,21.414712 190.624888,23.1568479 189.949998,24.7461536 M191.670088,6.46528519 C189.838059,4.79699581 187.609687,3.45555758 185.044846,2.4775727 C182.470894,1.49701924 179.550711,1 176.361744,1 C173.174078,1 170.252593,1.49701924 167.679943,2.4775727 C165.113801,3.45619972 162.884127,4.7982801 161.05405,6.46528519 C159.219418,8.13742743 157.797399,10.123578 156.826391,12.3685124 C155.854732,14.6108783 155.362069,17.0513455 155.362069,19.6205625 C155.362069,22.1897795 155.854732,24.6292835 156.826391,26.8716494 C157.796097,29.1165838 159.218116,31.1033765 161.05405,32.7742344 C162.885428,34.4444502 165.119007,35.748002 167.694261,36.6495718 C170.260403,37.5466465 173.176681,38 176.361744,38 C179.546155,38 182.463084,37.5466465 185.03183,36.6495718 C187.60448,35.7492863 189.838059,34.4463767 191.670088,32.7742344 C193.501466,31.1072293 194.924136,29.1204367 195.899049,26.8716494 C196.870057,24.6273571 197.362069,22.1878531 197.362069,19.6205625 C197.362069,17.0526298 196.870057,14.6128047 195.899049,12.3685124 C194.924136,10.1197251 193.500165,8.13357457 191.670088,6.46528519" id="Fill-10"></path>
        <path d="M252.907999,25.6476694 C251.272175,23.8290883 249.198622,22.5083724 246.686677,21.6875316 C244.175397,20.8660208 241.429952,20.4110405 238.451009,20.3239309 C235.4714,20.2374914 232.608873,20.1912562 229.862098,20.1912562 C228.226273,20.1912562 226.693561,20.1343 225.263961,20.0163669 C223.832365,19.899774 222.577057,19.6505065 221.496042,19.2692343 C220.413697,18.8906425 219.566847,18.3606139 218.953496,17.6885296 C218.340145,17.0164453 218.0348,16.1195512 218.0348,15.0065582 C218.0348,12.5460462 219.423821,10.5532459 222.204523,9.02949752 C224.983229,7.50775932 228.746491,6.74454496 233.487655,6.74454496 C235.592473,6.74454496 237.53963,6.93618614 239.326464,7.31812835 C241.111968,7.6994005 242.646011,8.16845234 243.935245,8.72595396 C245.222484,9.28211544 246.216353,9.85368862 246.920841,10.4413436 C247.622669,11.0283285 247.975912,11.5261935 247.975912,11.9356087 C247.975912,12.5239338 247.930675,12.9045358 247.84619,13.0807653 L248.882634,13.6972334 L253.688991,3.61127863 L252.640573,3.17573049 C252.347868,3.46654263 252.055827,3.72787152 251.764452,3.95904707 C251.472412,4.19290292 251.009405,4.30681551 250.369444,4.30681551 C249.786029,4.30681551 249.054265,4.13326633 248.18014,3.78549789 C247.302689,3.43772945 246.193069,3.06047775 244.84862,2.65441287 C243.503505,2.24901806 241.90959,1.87109628 240.066876,1.5219877 C238.223497,1.17622948 236.045502,1 233.534221,1 C230.317122,1 227.335517,1.35111881 224.586081,2.05335643 C221.836645,2.75492398 219.456417,3.72117078 217.440076,4.94941654 C215.421738,6.17699222 213.827824,7.65450554 212.658332,9.37994625 C211.48751,11.106057 210.905425,13.023809 210.905425,15.1285117 C210.905425,18.4638053 211.723005,20.9779232 213.357499,22.676561 C214.994654,24.3725184 217.068207,25.5873627 219.579487,26.3170733 C222.091432,27.0501344 224.850847,27.4320766 227.860391,27.4595496 C230.870601,27.4876927 233.718493,27.5017643 236.405396,27.5017643 C238.03856,27.5017643 239.571938,27.589544 241.003534,27.7657735 C242.434464,27.9413329 243.689772,28.2488969 244.770786,28.6884655 C245.853132,29.128034 246.698651,29.7579037 247.313333,30.575394 C247.926684,31.3962348 248.23469,32.4187678 248.23469,33.6476836 C248.23469,36.2214381 246.996014,38.3294911 244.522652,39.9678222 C242.047295,41.6081635 238.043882,42.4249838 232.510417,42.4249838 C230.356371,42.4249838 228.231595,42.1911279 226.134759,41.7200659 C224.036593,41.2523542 222.158621,40.653308 220.498183,39.9175666 C218.837744,39.1865158 217.499282,38.3790766 216.4808,37.4985993 C215.460987,36.618792 214.954075,35.767798 214.954075,34.9469572 C214.954075,34.5951683 215.03989,34.2132261 215.215514,33.8018006 L214.078619,33.1860026 L209.362069,43.304791 L210.236194,43.8321393 C210.875489,43.1305718 211.48751,42.7787829 212.069595,42.7787829 C212.710221,42.7787829 213.553745,43.0582038 214.602163,43.6177156 C215.653242,44.1792377 216.990373,44.7990562 218.620876,45.4765011 C220.251379,46.1552861 222.218493,46.7449513 224.518227,47.2461667 C226.819291,47.7480522 229.541452,48 232.687371,48 C236.413379,48 239.687689,47.6180578 242.512297,46.8548434 C245.335575,46.0943094 247.705824,45.0382726 249.62238,43.6880734 C251.534945,42.3392143 252.971862,40.798714 253.927812,39.0685828 C254.883096,37.3377815 255.362069,35.5339421 255.362069,33.6557245 C255.362069,30.1351554 254.545155,27.4675905 252.907999,25.6476694" id="Fill-11"></path>
        <path d="M157.464873,42.0035608 C157.464873,42.5762611 157.318678,44.2178042 157.02562,44.5560831 C156.733231,44.895549 156.179158,45.0635015 155.362069,45.0635015 L155.362069,46 L195.362069,45.9970326 L195.362069,45.0599407 C194.544312,45.0599407 193.99024,44.8919881 193.696515,44.5525223 C193.404793,44.2148368 193.258598,42.5727003 193.258598,42 L193.243244,42.0011869 L157.492243,42.0011869 L157.464873,42.0035608 Z" id="Fill-12"></path>
      </g>
    </g>
  </g>
</svg>
