<?xml version="1.0" encoding="UTF-8" standalone="no"?>
<!DOCTYPE svg PUBLIC "-//W3C//DTD SVG 1.1//EN" "http://www.w3.org/Graphics/SVG/1.1/DTD/svg11.dtd">
<svg width="100%" height="100%" viewBox="0 0 665 199" version="1.1" xmlns="http://www.w3.org/2000/svg" xmlns:xlink="http://www.w3.org/1999/xlink" xml:space="preserve" xmlns:serif="http://www.serif.com/" style="fill-rule:evenodd;clip-rule:evenodd;stroke-linejoin:round;stroke-miterlimit:2;">
    <path class="animated-path" d="M291.376,88.827C291.796,86.299 295.11,69.727 298.79,59.677C301.313,50.685 304.305,42.55 307.766,35.272C310.16,30 314.413,23.142 320.527,14.7C324.635,9.072 328.225,6.258 331.298,6.258C334.371,6.775 335.907,8.668 335.907,11.935L335.907,12.517C335.907,16.075 333.504,24.557 330.204,32.934C324.026,48.881 318.99,58.157 313.589,65.79C310.063,70.998 305.211,77.581 299.033,85.538C298.373,86.921 297.499,92.64 296.411,102.698C295.96,103.211 296.411,102.698 296.411,102.698C296.411,102.698 300.105,98.089 303.142,93.075C307.164,87.246 314.349,80.201 316.645,80.201L317.033,80.201C318.748,80.201 319.734,81.219 319.993,83.257C319.993,84.486 317.114,87.947 311.357,93.64C308.057,98.136 306.408,101.096 306.408,102.519C306.602,105.398 309.384,109.781 314.753,115.668C317.502,117.9 321.303,119.016 326.155,119.016C338.705,119.016 348.748,111.366 356.285,96.066C358.241,91.123 360.064,88.004 360.78,86.36C362.699,78.512 367.751,67.095 375.935,52.108C379.493,45.671 386.092,37.763 395.731,28.383C401.618,22.528 406.389,19.762 410.044,20.086C412.826,20.312 414.152,22.528 414.022,26.733L413.974,26.975C413.65,30.695 409.057,39.542 400.194,53.515C394.922,61.731 387.66,71.079 378.41,81.559C374.657,85.893 370.857,89.92 367.008,93.64C366.587,94.222 366.345,94.999 366.28,95.969C365.795,101.436 367.849,106.546 372.442,111.301C374.059,112.595 375.822,113.323 377.73,113.484C382.129,113.873 385.38,109.926 387.483,101.646L387.677,99.22C387.968,96.115 387.653,92.469 386.036,87.714C385.383,86.179 387.175,85.069 388.113,85.004L389.375,85.101C390.28,85.198 392.124,86.039 394.906,87.624C396.75,88.465 398.676,88.969 400.68,89.176C404.293,89.55 411.027,88.34 412.902,86.963C413.267,86.283 413.599,85.721 413.974,85.149C414.371,84.545 414.685,84.826 416.109,84.761L416.448,84.761C418.486,85.182 419.158,86.137 419.667,86.889C419.921,87.264 419.685,88.858 419.505,89.274C418.721,91.085 416.711,95.354 414.799,98.783C412.761,102.438 411.742,105.738 411.742,108.681C411.742,110.072 412.761,110.767 414.799,110.767C420.912,110.767 429.306,105.948 439.98,96.309C441.144,95.258 442.988,93.737 442.988,93.737C442.988,93.737 448.099,88.61 450.945,85.344L452.934,85.344C454.843,85.602 455.797,86.589 455.797,88.303L455.797,88.691C455.797,89.759 454.212,91.91 451.042,95.144C446.19,101.064 443.764,106.287 443.764,110.816C443.764,112.207 444.783,112.902 446.821,112.902C452.934,112.902 461.328,108.083 472.002,98.444C473.174,97.385 475.01,95.872 475.01,95.872C475.01,95.872 479.757,91.111 482.649,87.841C484.04,84.814 486.168,81.782 489.032,78.745C493.334,74.669 498.332,72.583 504.025,72.486L506.645,72.583C510.461,72.615 513.13,74.297 514.65,77.629C515.038,78.502 515.896,82.157 517.222,88.594C519.648,94.255 523.917,97.085 530.031,97.085C535.882,97.085 542.628,93.424 549.707,86.638C550.971,84.449 552.37,83.354 553.902,83.354C555.649,83.742 556.522,84.405 556.522,85.344L556.522,85.926C556.522,86.508 555.26,89.257 552.737,94.174C551.875,96.31 551.263,97.915 550.901,98.987C550.385,99.563 550.901,98.987 550.901,98.987C550.901,98.987 552.411,97.456 553.805,96.212C556.813,94.239 559.19,93.252 560.937,93.252L562.878,93.252C567.015,93.252 569.852,95.855 571.386,101.062C571.155,101.41 571.386,101.062 571.386,101.062C571.386,101.062 572.7,99.065 573.795,97.328C576.2,94.119 579.795,93.446 582.673,93.446C586.652,93.446 589.919,95.727 592.474,100.287C593.703,102.519 595.207,104.395 596.987,105.915C601.159,108.859 604.216,110.331 606.157,110.331L606.739,110.331C612.173,110.331 617.332,107.905 622.216,103.053C626.486,99.56 629.446,96.244 631.095,93.107C633.295,88.934 635.332,86.848 637.209,86.848L637.403,86.848C638.826,86.848 639.829,87.786 640.411,89.662C638.923,93.673 635.494,98.654 630.125,104.605C621.974,112.368 615.019,116.25 609.262,116.25L606.545,116.25C600.949,116.25 592.983,111.758 589.414,106.886C586.244,101.872 583.838,99.365 582.868,99.365L582.479,99.365C579.762,99.365 577.223,102.665 574.862,109.263C572.662,114.309 571.094,116.832 570.156,116.832L569.185,117.026C566.662,117.026 565.255,113.678 564.964,106.983C564.317,101.905 563.963,99.653 562.341,99.106C562.201,99.058 561.926,98.993 561.713,98.977C555.536,98.525 552.77,105.301 544.004,117.948C542.257,119.792 540.915,120.714 539.977,120.714L539.686,120.714C537.648,120.455 536.629,119.339 536.629,117.366C538.685,111.357 541.037,105.341 543.685,99.321C540.792,100.849 537.534,102.077 533.912,103.004C532.489,103.134 531.389,103.198 530.613,103.198L529.837,103.198C521.168,103.198 514.909,99.268 511.06,91.408L510.676,91.169C510.675,91.167 510.674,91.166 510.672,91.166L510.676,91.169C510.722,91.255 509.685,93.211 507.566,97.037C502.682,103.603 497.361,106.886 491.604,106.886L491.41,106.886C487.011,106.886 483.663,104.428 481.366,99.511C481.305,99.322 481.248,99.136 481.195,98.953C479.933,100.187 478.442,101.465 476.709,103.053C464.805,113.953 454.778,119.404 446.627,119.404C440.384,119.404 437.263,116.476 437.263,110.622C437.263,109.102 437.376,107.921 437.602,107.08C429.193,113.873 421.591,117.269 414.799,117.269C408.426,117.269 405.24,114.342 405.24,108.487C405.24,105.964 406.114,102.244 407.86,97.328C408.482,96.05 409.025,94.924 409.504,93.927C406.287,94.822 402.909,95.13 399.37,94.853C397.008,94.497 395.343,94.271 394.372,94.174L394.275,94.465L394.227,94.805C394.388,97.295 394.437,98.961 394.372,99.802L394.275,100.772C393.79,106.11 391.283,111.22 386.755,116.104C384.102,118.369 380.738,119.323 376.663,118.967C368.76,118.257 363.301,112.641 360.289,102.121C359.027,104.025 357.26,106.287 354.959,109.708C351.142,115.731 346.306,119.84 337.993,122.751C333.983,124.078 330.101,124.741 326.349,124.741L324.214,124.741C314.349,124.741 306.715,119.42 301.313,108.778C301.248,108.721 301.01,108.361 300.965,108.427C299.563,110.481 298.324,113.644 297.674,116.201C296.607,120.406 295.437,125.351 294.812,125.954C293.906,126.827 292.839,127.264 291.61,127.264C289.733,127.264 288.682,126.035 288.456,123.576L288.65,119.355C288.65,119.355 289.426,111.883 289.426,110.719L289.976,104.327C289.976,104.327 290.204,102.249 290.425,99.621C289.417,100.528 288.291,101.413 287.049,102.277C275.146,113.177 265.118,118.627 256.967,118.627C250.724,118.627 247.603,115.7 247.603,109.845C247.603,107.323 248.476,103.603 250.223,98.686C251.124,96.833 251.925,95.191 252.628,93.761C250.666,94.336 248.328,94.911 245.614,95.484C244.546,95.613 243.382,95.678 242.12,95.678C238.498,95.678 232.756,95.29 224.896,94.514C224.873,94.514 224.819,94.522 224.732,94.538C225.144,95.561 226.532,97.909 228.38,102.077C230.127,107.123 231.867,113.581 233.193,121.733L233.387,124.207C233.646,128.38 233.775,131.792 233.775,134.444L233.775,135.609C233.775,140.008 232.302,150.19 229.554,155.841C227.258,160.564 223.894,163.734 219.462,165.351C219.074,165.351 218.524,165.416 217.813,165.545C211.602,165.545 207.074,159.529 204.227,147.496C203.289,142.256 202.82,140.33 202.82,137.55L202.82,135.803C202.82,134.38 203.141,127.781 203.141,127.781C203.722,118.652 204.841,111.571 207.65,96.616C203.808,99.452 199.109,101.581 193.553,103.004C192.13,103.134 191.03,103.198 190.254,103.198L189.478,103.198C180.809,103.198 174.55,99.268 170.701,91.408L170.317,91.169C170.316,91.167 170.315,91.166 170.313,91.166L170.317,91.169C170.363,91.255 169.326,93.211 167.207,97.037C162.323,103.603 157.002,106.886 151.245,106.886L151.051,106.886C147.032,106.886 143.891,104.834 141.627,100.732C140.455,102.512 139.11,104.515 137.591,106.74C134.518,111.819 129.407,116.784 122.259,121.636C119.768,123.026 116.291,123.997 111.827,124.547L111.536,124.547C106.62,124.547 102.577,121.474 99.407,115.328C98.663,113.711 98.291,111.269 98.291,108.002C98.291,101.856 99.876,95.306 103.046,88.352L104.307,84.325L104.307,84.201C104.464,84.187 104.307,84.201 104.307,84.201C102.767,84.348 100.146,85.214 96.447,86.799C94.93,87.372 89.676,89.396 88.489,89.853C87.574,90.21 86.742,90.533 86.097,90.779C81.469,92.548 75.755,94.328 68.129,98.512C67.885,98.645 67.735,98.697 67.423,98.78L67.692,99.822C67.692,100.113 68.97,103.202 71.525,109.089C76.992,127.073 79.725,139.64 79.725,146.788L79.725,150.281C79.725,158.788 77.946,166.406 74.388,173.134C71.897,178.794 69.051,182.951 65.848,185.603C61.741,188.352 57.422,189.727 52.894,189.727L52.312,189.727C42.511,189.727 34.263,183.824 27.567,172.018C25.141,167.554 23.928,162.637 23.928,157.268L23.928,153.386C23.928,138.022 31.546,122.27 46.781,106.129C49.465,103.606 53.314,100.533 58.328,96.911L58.619,96.183C58.234,94.23 57.39,92.548 56.085,91.136C56.214,90.878 56.085,91.136 56.085,91.136C56.085,91.136 54.641,94.094 52.991,97.541C50.145,101.682 46.364,103.752 42.22,103.752C36.472,103.752 31.384,101.083 27.955,95.746C27.211,94 26.839,91.77 26.839,89.73C26.839,83.337 30.252,77.519 37.077,71.826C39.503,70.533 41.864,69.886 44.161,69.886C48.915,69.886 53.088,72.49 56.678,77.697C60.98,87.757 63.487,92.787 64.199,92.787C65.428,92.463 72.83,89.279 76.179,87.99C80.411,86.362 88.144,83.459 92.451,81.877C92.66,81.788 92.877,81.699 93.099,81.608C93.32,81.539 93.545,81.467 93.777,81.392C94.053,81.291 94.302,81.201 94.52,81.123C94.648,81.078 94.77,81.043 94.888,81.017C99.046,79.574 104.693,77.167 111.827,73.796C111.827,73.796 113.501,73.267 113.985,73.603C114.753,74.137 116.437,75.187 116.437,76.998C115.855,78.292 114.124,81.058 111.245,85.295C106.943,95.128 104.792,102.487 104.792,107.371C105.116,112.935 106.782,116.412 109.79,117.803C110.307,118.094 110.76,118.239 111.148,118.239L111.925,118.239C115.159,118.239 119.413,116.137 124.685,111.932C128.534,108.115 133.111,102.018 138.416,93.64C141.046,89.616 142.321,87.563 142.905,86.592C144.28,83.98 146.203,81.364 148.673,78.745C152.975,74.669 157.973,72.583 163.666,72.486L166.286,72.583C170.102,72.615 172.771,74.297 174.291,77.629C174.679,78.502 175.537,82.157 176.863,88.594C179.289,94.255 183.558,97.085 189.672,97.085C195.526,97.085 202.697,93.568 209.78,86.776C210.015,86.551 210.201,86.14 210.342,85.707C210.48,85.009 210.615,84.288 210.749,83.544C207.968,84.517 205.989,85.004 204.809,85.004L204.421,85.004C203.871,85.004 202.238,84.566 202.238,83.209C202.238,81.43 204.13,79.893 207.915,78.599C211.667,77.079 213.98,75.3 214.853,73.262C217.893,64.982 222.341,56.378 228.196,47.45C231.915,41.369 235.441,38.329 238.773,38.329L240.18,38.329C243.188,38.329 244.692,40.286 244.692,44.2L244.692,45.17C244.692,49.957 243.191,53.747 241.141,57.252C240.392,58.842 237.608,63.284 230.816,70.303C228.357,72.535 225.107,75.058 221.063,77.872C219.09,80.427 217.926,83.193 217.57,86.168C217.57,87.624 224.783,88.885 239.209,89.953L243.091,89.953C245.808,89.953 249.167,88.951 254.476,86.874C254.785,86.754 255.73,86.502 256.572,86.336C256.888,86.235 257.521,86.163 258.471,86.12L258.811,86.12C260.849,86.54 261.868,87.592 261.868,89.274L261.868,90.632C261.283,94.419 259.045,97.317 257.161,100.142C255.123,103.797 254.105,107.096 254.105,110.04C254.105,111.43 255.188,112.126 257.355,112.126C263.307,112.126 277.017,102.717 282.342,97.667C285.959,94.238 288.901,91.448 291.376,88.827ZM30.624,155.521C30.624,163.608 32.678,170.028 36.786,174.783C41.088,180.929 46.522,184.002 53.088,184.002C62.371,184.002 68.84,175.592 72.496,158.772C73.11,155.99 73.417,152.707 73.417,148.923C73.417,139.122 70.603,125.812 64.975,108.992C63.261,104.981 62.258,102.878 61.967,102.684C57.891,103.655 51.632,109.412 43.19,119.957C34.813,131.634 30.624,143.489 30.624,155.521ZM214.388,93.533C214.388,93.533 212.508,103.441 210.147,124.013C209.177,132.459 209.136,132.461 209.384,138.861C209.603,144.494 211.82,149.922 213.155,153.367C214.058,155.699 216.396,159.45 218.248,159.313C220.1,159.175 221.743,157.135 224.266,152.542C225.236,150.375 227.325,146.614 227.325,132.539C227.325,131.44 227.928,120.488 223.635,107.711C220.271,99.398 217.246,94.514 214.562,93.058C214.464,93.146 214.388,93.533 214.388,93.533ZM487.581,91.678C487.19,92.745 486.995,93.788 486.995,94.805C486.995,98.072 488.402,100.126 491.216,100.967L492.186,100.967C496.779,100.967 501.453,96.034 506.208,86.168C507.566,82.869 508.246,80.637 508.246,79.473L508.246,78.308C508.246,78.438 507.243,78.454 505.238,78.357C498.445,78.227 493.124,81.608 489.275,88.497C488.637,89.42 488.133,90.326 487.763,91.215C487.723,91.359 487.663,91.513 487.581,91.678ZM146.636,94.805C146.636,98.072 148.043,100.126 150.857,100.967L151.827,100.967C156.42,100.967 161.094,96.034 165.849,86.168C167.207,82.869 167.887,80.637 167.887,79.473C167.887,79.473 167.92,78.705 167.627,78.596C167.126,78.41 166.884,78.454 164.879,78.357C158.086,78.227 152.765,81.608 148.916,88.497C147.396,90.697 146.636,92.799 146.636,94.805ZM33.147,90.506L33.147,91.088C33.147,94.679 35.961,97.056 41.589,98.221L42.414,98.221C45.099,98.221 47.622,95.018 49.983,88.614C50.597,86.188 50.905,83.956 50.905,81.918C49.87,77.455 48.139,75.223 45.713,75.223L44.355,75.223C41.411,75.223 38.322,77.681 35.088,82.598C33.794,84.927 33.147,87.563 33.147,90.506ZM367.868,84.659C367.868,84.659 370.303,82.238 372.054,80.006C382.792,67.844 391.105,57.122 396.992,47.839C404.044,36.226 407.666,29.304 407.86,27.073C408.146,26.374 407.666,26.005 407.666,26.005C406.47,25.973 401.86,30.097 393.839,38.377C387.628,44.555 382.178,52.415 377.488,61.957C373.976,68.723 370.769,76.291 367.868,84.659C367.37,85.076 367.868,84.659 367.868,84.659ZM271.329,63.219C272.978,63.219 273.965,64.367 274.288,66.664C274.288,69.251 270.627,73.02 266.622,73.02C263.881,73.02 262.353,71.063 262.353,68.896C262.353,66.308 264.665,64.497 269.291,63.462C269.873,63.3 270.552,63.219 271.329,63.219ZM302.09,71.225C302.067,71.325 301.929,71.939 301.956,71.921C302.053,71.856 305.53,68.523 306.759,66.506C324.104,38.038 328.718,23.033 329.017,14.458C329.025,14.231 328.969,13.924 328.872,13.536C328.84,13.536 325.387,17.082 324.152,19.075C321.491,23.369 315.134,34.559 312.903,39.304C309.312,46.938 305.842,57.607 302.09,71.225ZM238.192,44.919C238.192,44.919 238.201,44.77 238.192,44.919C235.958,47.063 234.049,49.734 232.465,52.933C227.219,61.462 224.247,66.743 223.552,68.774C223.289,68.981 223.552,68.774 223.552,68.774C223.552,68.774 229.464,63.377 232.174,59.774C236.185,54.372 238.19,49.44 238.19,44.976C238.19,44.955 238.192,44.919 238.192,44.919Z" style="fill:white;fill-rule:nonzero;"/>
</svg>
