<?xml version="1.0" encoding="UTF-8" standalone="no"?>
<!DOCTYPE svg PUBLIC "-//W3C//DTD SVG 1.1//EN" "http://www.w3.org/Graphics/SVG/1.1/DTD/svg11.dtd">
<svg width="100%" height="100%" viewBox="0 0 613 179" version="1.1" xmlns="http://www.w3.org/2000/svg" xmlns:xlink="http://www.w3.org/1999/xlink" xml:space="preserve" xmlns:serif="http://www.serif.com/" style="fill-rule:evenodd;clip-rule:evenodd;stroke-linecap:round;stroke-linejoin:round;stroke-miterlimit:1.5;">
    <g transform="matrix(0.953104,0,0,0.953104,-10.6734,-4.82987)">
        <path class="animated-path " d="M54.331,80.535C54.331,80.535 52.73,97.889 46.589,99.5C40.448,101.111 34.16,100.742 31.232,93.699C28.303,86.655 35.022,75.287 40.669,73.165C46.282,71.056 51.443,71.844 58.951,88.52C66.519,105.331 76.546,127.539 76.546,151.225C76.546,174.911 63.963,187.025 51.552,187.025C39.141,187.025 26.763,172.081 26.763,152.779C26.763,133.477 46.904,102.102 72.221,93.235C97.539,84.368 113.067,76.489 113.067,76.489C113.067,76.489 101.307,92.236 101.307,109.396C101.307,126.556 120.325,121.766 128.651,112.829C143.514,96.872 146.996,69.995 170.67,76.19C170.67,76.19 166.584,104.035 151.282,104.035C135.98,104.035 146.647,83.123 154.188,78.206C161.826,73.227 170.67,76.19 170.67,76.19C170.67,76.19 170.082,100.143 187.016,100.143C203.951,100.143 212.825,88.79 212.825,88.79C212.825,88.79 204.825,126.599 206.761,139.697C208.697,152.795 211.89,161.264 218.287,162.551C224.683,163.837 233.235,147.034 229.985,122.784C226.3,95.291 212.825,88.79 212.825,88.79C212.825,88.79 222.074,61.971 229.18,52.005C236.287,42.039 237.334,41.846 239.737,41.846C242.14,41.846 247.812,64.222 205.462,82.592L217.348,76.66L212.825,88.79C212.825,88.79 229.649,94.007 239.221,93.248C248.793,92.49 258.235,89.166 258.235,89.166C258.235,89.166 242.288,114.143 256.417,115.236C270.546,116.329 288.856,98.489 307.787,71.478C326.717,44.467 337.89,9.949 330.613,9.949C323.335,9.949 294.031,51.129 292.321,123.222C292.321,123.222 299.291,93.283 316.453,83.498C316.453,83.498 307.054,88.642 301.175,100.548C301.175,100.548 309.06,121.978 325.881,121.978C342.701,121.978 353.442,111.664 363.679,87.196C373.917,62.728 389.884,29.328 409.309,23.055C428.734,16.783 382.31,80.575 361.481,92.214C361.481,92.214 360.26,116.032 378.291,116.032C396.323,116.032 389.602,89.229 389.602,89.229C389.602,89.229 401.734,97.687 415.639,89.235C415.639,89.235 398.442,113.939 415.955,113.939C433.467,113.939 452.498,88.138 452.498,88.138C452.498,88.138 429.269,116.79 446.28,116.79C463.292,116.79 481.219,93.195 487.869,85.698C494.519,78.201 501.438,72.507 511.316,77.09C511.316,77.09 506.081,108.23 489.936,103.969C473.792,99.709 493.713,67.872 511.316,77.09C511.316,77.09 509.17,99.5 528.622,99.5C548.075,99.5 553.721,86.487 553.721,86.487L539.642,117.496C539.642,117.496 550.525,95.995 562.736,95.995C568.803,95.995 569.093,113.212 569.093,113.212C569.093,113.212 574.895,96.789 582.403,96.721C592.25,96.633 592.798,115.573 607.293,113.745C626.017,111.385 638.099,89.33 638.099,89.33" style="fill:none;stroke:black;stroke-width:6.3px;"/>
    </g>
</svg>
