<?xml version="1.0" encoding="UTF-8"?>
<svg preserveAspectRatio="xMidYMid slice" width="68px" height="19px" xmlns="http://www.w3.org/2000/svg" id="Ebene_1" data-name="Ebene 1" viewBox="0 0 675.14 191.55">
  <defs>
    <style>.cls-1{fill:#4a7c9e;}.cls-2{fill:#4d5858;}</style>
  </defs>
  <path class="cls-1" d="M410.66,144.49c-32.31-9-37.39-17.56-97.55,9.28l-190.1,94L347.37,159C382.12,144.75,396.93,142.26,410.66,144.49Z" transform="translate(-67.12 -133.35)"></path>
  <path class="cls-1" d="M466.1,147.82c-32.31-9-38-17.59-97.55,9.28L178.44,251.16,402.8,162.29C437.56,148.09,452.37,145.6,466.1,147.82Z" transform="translate(-67.12 -133.35)"></path>
  <path class="cls-1" d="M354.78,141.65c-32.31-9-34.68-16.37-96.81,9.71L67.12,245l224.37-88.87C326.24,141.91,341.05,139.42,354.78,141.65Z" transform="translate(-67.12 -133.35)"></path>
  <path class="cls-2" d="M310.07,264V226h7V243.6h29.45V226h6.88v38h-6.88v-16.5H317V264Z" transform="translate(-67.12 -133.35)"></path>
  <path class="cls-2" d="M385.23,264V226h7v38Z" transform="translate(-67.12 -133.35)"></path>
  <path class="cls-2" d="M450.75,264.56c-19.3,0-30.28-8.31-30.28-19.87,0-11.78,11.57-19.55,30.28-19.55a52.55,52.55,0,0,1,18.62,3L467,231.77c-4.2-1.9-10.07-2.83-16.2-2.83-14,0-23.23,6.14-23.23,15.69s9.39,16.13,23.57,16.13a39.68,39.68,0,0,0,13.34-2.07v-10H452.09v-3.8h19.3v15.86A52.87,52.87,0,0,1,450.75,264.56Z" transform="translate(-67.12 -133.35)"></path>
  <path class="cls-2" d="M500.16,264V226h7V243.6h29.45V226h6.88v38h-6.88v-16.5H507.12V264Z" transform="translate(-67.12 -133.35)"></path>
  <path class="cls-2" d="M586.57,264V229.81H569V226h42v3.85H593.45V264Z" transform="translate(-67.12 -133.35)"></path>
  <path class="cls-2" d="M672.72,264H636.56V226h35.32v3.85H643.53v12.54h23.32v3.86H643.53v13.9h29.19Z" transform="translate(-67.12 -133.35)"></path>
  <path class="cls-2" d="M702.33,226l15.52,15.85L733.54,226h7.55l-18.54,18.51L742.27,264h-7.64l-16.78-16.77L701.07,264h-7.55l19.63-19.49L694.7,226Z" transform="translate(-67.12 -133.35)"></path>
  <path class="cls-2" d="M313.55,304.3v2.63a16.44,16.44,0,0,1,9.27-3.1c3.29,0,5.79,1.09,7.07,3.06a18.59,18.59,0,0,1,10.3-3.06c5.3,0,8.41,2.52,8.41,7.08v13.57h-3.72V311.2c0-3.6-1.95-5.15-5.36-5.15a14.83,14.83,0,0,0-8.78,3,9.18,9.18,0,0,1,.25,1.88v13.57h-3.66V311.2c0-3.6-2-5.15-5.37-5.15a13.53,13.53,0,0,0-8.41,3v15.45h-3.72V304.3Z" transform="translate(-67.12 -133.35)"></path>
  <path class="cls-2" d="M389.5,308.44V304.3h3.72v20.18H389.5v-4.32c-2.13,2.89-6,4.74-11.28,4.74-8.17,0-13.77-4.32-13.77-10.56,0-6.49,6.15-10.63,13.89-10.63C383.4,303.71,387.37,305.51,389.5,308.44ZM379,322.63c6.53,0,10.55-3.47,10.55-8.33V314c-.18-4.69-4.27-8-10.55-8-6.46,0-10.72,3.52-10.72,8.37S372.43,322.63,379,322.63Z" transform="translate(-67.12 -133.35)"></path>
  <path class="cls-2" d="M413,299.61c-1.52,0-2.43-.72-2.43-1.68s.91-1.8,2.43-1.8,2.38.75,2.38,1.8S414.49,299.61,413,299.61Zm1.89,4.69v20.18h-3.71V304.3Z" transform="translate(-67.12 -133.35)"></path>
  <path class="cls-2" d="M436.43,324.48h-3.72V304.3h3.72v2.76A19.61,19.61,0,0,1,447,303.71c5.67,0,9.08,2.64,9.08,7.2v13.57h-3.72V311.2c0-3.6-2.25-5.27-6.1-5.27a16.61,16.61,0,0,0-9.81,3.39Z" transform="translate(-67.12 -133.35)"></path>
  <path class="cls-2" d="M470.08,304.3h5.3V300l3.66-.75v5.07h11.64v2.21H479v10.05c0,4.15,2.13,6.12,6.52,6.12a19,19,0,0,0,6.64-1.18l.86,2a25.16,25.16,0,0,1-8.35,1.43c-5.8,0-9.33-2.52-9.33-7.54V306.51h-5.3Z" transform="translate(-67.12 -133.35)"></path>
  <path class="cls-2" d="M508.41,315.52c.68,4.35,4.76,7.16,10.92,7.16a26.48,26.48,0,0,0,11.21-2.26l1.41,2.05a30.07,30.07,0,0,1-12.68,2.43c-9,0-14.76-4.36-14.76-10.51,0-6.41,5.86-10.68,13.84-10.68s14.14,4.23,14.14,10.8a4.09,4.09,0,0,1-.12,1Zm-.06-2h20.3c-.48-4.52-4.69-7.58-10.18-7.58C512.62,305.93,508.78,309.07,508.35,313.51Z" transform="translate(-67.12 -133.35)"></path>
  <path class="cls-2" d="M552.24,324.48h-3.72V304.3h3.72v2.76a19.58,19.58,0,0,1,10.55-3.35c5.66,0,9.08,2.64,9.08,7.2v13.57h-3.72V311.2c0-3.6-2.26-5.27-6.1-5.27a16.61,16.61,0,0,0-9.81,3.39Z" transform="translate(-67.12 -133.35)"></path>
  <path class="cls-2" d="M612.77,308.44V304.3h3.72v20.18h-3.72v-4.32c-2.14,2.89-6,4.74-11.28,4.74-8.17,0-13.78-4.32-13.78-10.56,0-6.49,6.16-10.63,13.9-10.63C606.67,303.71,610.63,305.51,612.77,308.44Zm-10.55,14.19c6.52,0,10.55-3.47,10.55-8.33V314c-.19-4.69-4.27-8-10.55-8-6.46,0-10.73,3.52-10.73,8.37S595.7,322.63,602.22,322.63Z" transform="translate(-67.12 -133.35)"></path>
  <path class="cls-2" d="M638.12,324.48H634.4V304.3h3.72v2.76a19.61,19.61,0,0,1,10.55-3.35c5.66,0,9.08,2.64,9.08,7.2v13.57H654V311.2c0-3.6-2.25-5.27-6.1-5.27a16.61,16.61,0,0,0-9.81,3.39Z" transform="translate(-67.12 -133.35)"></path>
  <path class="cls-2" d="M688.89,305.93c-7.07,0-11.52,3.47-11.52,8.46s4.39,8.29,11.46,8.29a27.41,27.41,0,0,0,8.41-1.39l1.29,2.06a31.93,31.93,0,0,1-9.76,1.55c-9.63,0-15.24-4.4-15.24-10.51,0-6.45,6.1-10.68,15.49-10.68a26.56,26.56,0,0,1,9.08,1.46l-1.34,2.1A22.32,22.32,0,0,0,688.89,305.93Z" transform="translate(-67.12 -133.35)"></path>
  <path class="cls-2" d="M714.92,315.52c.67,4.35,4.75,7.16,10.91,7.16a26.56,26.56,0,0,0,11.22-2.26l1.4,2.05a30,30,0,0,1-12.68,2.43c-9,0-14.75-4.36-14.75-10.51,0-6.41,5.85-10.68,13.84-10.68S739,307.94,739,314.51a4.09,4.09,0,0,1-.12,1Zm-.06-2h20.3c-.49-4.52-4.7-7.58-10.18-7.58C719.12,305.93,715.29,309.07,714.86,313.51Z" transform="translate(-67.12 -133.35)"></path>
</svg>
