<?xml version="1.0" encoding="UTF-8" standalone="no"?>
<svg xmlns="http://www.w3.org/2000/svg" xmlns:xlink="http://www.w3.org/1999/xlink" xmlns:serif="http://www.serif.com/" width="100%" height="100%" viewBox="0 0 289 50" version="1.1" xml:space="preserve" style="fill-rule:evenodd;clip-rule:evenodd;stroke-linejoin:round;stroke-miterlimit:2;">
  <g>
    <path d="M24.689,49.907c13.636,0 24.689,-11.053 24.689,-24.69c0,-13.635 -11.053,-24.689 -24.689,-24.689c-13.636,0 -24.689,11.054 -24.689,24.689c0,13.637 11.053,24.69 24.689,24.69Z" style="fill:#c31212;fill-rule:nonzero;"></path>
    <path d="M34.546,1.826c3.338,1.412 5.767,3.159 7.867,5.149c-3.094,-0.593 -6.81,0 -11.75,3.047c-2.794,1.723 -5.998,3.996 -9.655,7.772c-8.793,9.722 -11.135,16.57 -10.145,18.524c1.3,2.966 4.924,3.599 9.819,2.777c5.468,-0.859 12.359,-3.179 20.32,-6.598c4.065,-1.79 2.962,3.298 0.867,4.106c-6.969,2.925 -13.845,5.129 -20.607,6.464c-11.058,1.942 -17.673,0.545 -18.008,-6.172c-0.116,-4.795 4.66,-14.94 12.054,-22.289c5.434,-5.403 12.413,-10.766 19.238,-12.78Z" style="fill:#fff;"></path>
    <path d="M109.219,47.667c0,1.556 -0.965,2.333 -2.894,2.333l-23.065,0c-4.429,0 -7.618,-0.423 -9.568,-1.27c-3.346,-1.338 -5.02,-3.769 -5.02,-7.293l0,-11.163c0,-5.729 4.43,-8.594 13.289,-8.594l24.688,0c1.615,0 2.422,0.876 2.422,2.629c0,1.752 -0.807,2.628 -2.422,2.628l-24.245,0c-5,0 -7.501,1.053 -7.501,3.159l0,11.075c0,2.401 2.845,3.603 8.535,3.603l23.448,0c1.555,0 2.333,0.964 2.333,2.893Z" style="fill:#c31212;fill-rule:nonzero;"></path>
    <path d="M147.609,40.019c0,-0.276 -0.005,-0.62 -0.014,-1.034c-0.01,-0.413 -0.025,-0.896 -0.045,-1.447c-0.02,-0.551 -0.034,-1.033 -0.044,-1.447c-0.01,-0.413 -0.015,-0.757 -0.015,-1.033l-22.119,0c-1.299,0 -2.638,0.236 -4.016,0.709c-1.792,0.61 -2.687,1.407 -2.687,2.391l0,3.574c0,1.044 0.925,1.84 2.775,2.392c1.182,0.433 2.55,0.65 4.106,0.65l15.473,0c2.324,0 3.918,-0.227 4.785,-0.68c1.201,-0.61 1.801,-1.968 1.801,-4.075Zm6.114,1.477c0,5.67 -4.253,8.504 -12.758,8.504l-15.239,0c-3.267,0 -6.092,-0.6 -8.475,-1.801c-3.209,-1.535 -4.814,-3.672 -4.814,-6.408l0,-3.603c0,-2.953 1.527,-5.168 4.578,-6.644c2.264,-1.142 5.099,-1.713 8.505,-1.713l22.03,0c-0.334,-1.989 -3.15,-2.983 -8.446,-2.983c-0.216,0 -0.477,0.005 -0.782,0.015c-0.305,0.01 -0.655,0.024 -1.049,0.044c-0.019,0.02 -0.118,0.03 -0.295,0.03l-0.265,0l-0.473,0l-0.738,0c-1.536,0 -2.304,-0.975 -2.304,-2.924c0,-1.555 0.768,-2.333 2.304,-2.333c4.98,0 8.79,0.345 11.428,1.034c4.528,1.28 6.793,3.839 6.793,7.678" style="fill:#c31212;fill-rule:nonzero;"></path>
    <path d="M190.842,40.875l0,-10.07c0,-2.441 -2.804,-3.661 -8.415,-3.661l-18.694,0l0,14.056c0,1.28 1.339,2.244 4.016,2.894c0.966,0.217 1.92,0.384 2.864,0.502c0.946,0.118 1.901,0.178 2.866,0.178l8.889,0c1.358,0 2.475,-0.03 3.352,-0.089c0.875,-0.059 1.541,-0.138 1.992,-0.237c2.087,-0.491 3.13,-1.683 3.13,-3.573Zm6.203,0.207c0,5.946 -4.913,8.918 -14.737,8.918l-9.568,0c-3.484,0 -6.683,-0.62 -9.597,-1.86c-3.76,-1.594 -5.64,-3.898 -5.64,-6.91l0,-24.836c0,-1.142 0.413,-1.85 1.239,-2.126c0.256,-0.138 1.152,-0.207 2.689,-0.207c1.535,0 2.302,0.778 2.302,2.333l0,5.522l18.575,0c9.824,0 14.737,2.924 14.737,8.771" style="fill:#c31212;fill-rule:nonzero;"></path>
    <path d="M235.908,41.909c0,5.394 -4.116,8.091 -12.345,8.091l-21.086,0c-1.535,0 -2.302,-0.777 -2.302,-2.333c0,-1.929 0.767,-2.893 2.302,-2.893l21.117,0c3.897,0 5.845,-0.956 5.845,-2.865l0,-1.063c0,-1.713 -1.772,-2.57 -5.315,-2.57l-10.128,0c-9.312,0 -13.97,-2.598 -13.97,-7.795l0,-1.536c0,-3.445 2.344,-5.65 7.03,-6.615c0.944,-0.217 2.328,-0.379 4.149,-0.488c1.821,-0.108 4.109,-0.162 6.866,-0.162c1.554,0 2.332,0.985 2.332,2.953c0,1.536 -0.778,2.304 -2.332,2.304l-4.489,0c-2.343,0 -3.751,0.029 -4.224,0.089c-2.067,0.275 -3.1,0.915 -3.1,1.919l0,1.477c0,1.692 2.589,2.539 7.766,2.539l10.337,0c7.698,0 11.547,2.549 11.547,7.648" style="fill:#c31212;fill-rule:nonzero;"></path>
    <path d="M271.492,41.2l0,-10.897c0,-2.244 -2.558,-3.366 -7.678,-3.366l-10.129,0c-1.889,0 -3.583,0.236 -5.08,0.709c-2.125,0.689 -3.188,1.732 -3.188,3.13l0,10.424c0,1.339 1.081,2.324 3.247,2.953c1.438,0.414 3.121,0.621 5.05,0.621l10.131,0c1.632,0 3.178,-0.237 4.634,-0.71c2.01,-0.649 3.013,-1.604 3.013,-2.864Zm6.319,0c0,3.229 -1.593,5.592 -4.784,7.088c-2.262,1.141 -5.275,1.712 -9.037,1.712l-10.363,0c-3.426,0 -6.527,-0.58 -9.304,-1.742c-3.426,-1.535 -5.138,-3.888 -5.138,-7.058l0,-10.424c0,-3.17 1.704,-5.572 5.11,-7.206c2.499,-1.26 5.6,-1.89 9.302,-1.89l10.393,0c9.215,0 13.821,3.012 13.821,9.037" style="fill:#c31212;fill-rule:nonzero;"></path>
    <path d="M288.442,47.667c0,1.556 -0.767,2.333 -2.302,2.333c-1.516,0 -2.403,-0.068 -2.659,-0.207c-0.845,-0.314 -1.269,-1.023 -1.269,-2.126l0,-31.332c0,-1.536 0.767,-2.304 2.303,-2.304c1.438,0 2.334,0.059 2.688,0.178c0.826,0.275 1.239,0.984 1.239,2.126" style="fill:#c31212;fill-rule:nonzero;"></path>
  </g>
</svg>
