<?xml version="1.0" encoding="UTF-8" standalone="no"?>
<svg preserveAspectRatio="xMidYMid slice" width="240px" height="46px" xmlns="http://www.w3.org/2000/svg" xmlns:xlink="http://www.w3.org/1999/xlink" xmlns:serif="http://www.serif.com/"   viewBox="0 0 741 144" version="1.1" xml:space="preserve" style="fill-rule:evenodd;clip-rule:evenodd;stroke-linejoin:round;stroke-miterlimit:2;">
    <rect id="MT_Logo" x="0" y="0" width="740.159" height="143.097" style="fill:none;"></rect>
    <clipPath id="_clip1">
        <rect id="MT_Logo1" serif:id="MT_Logo" x="0" y="0" width="740.159" height="143.097"></rect>
    </clipPath>
    <g clip-path="url(#_clip1)">
        <g transform="matrix(0.668916,0,0,0.668916,-93.8884,-1989.92)">
            <circle cx="247.321" cy="3081.81" r="106.962" style="fill:rgb(242,242,242);"></circle>
        </g>
        <g transform="matrix(1.94561,0,0,1.94561,-958.996,-1662.7)">
            <path d="M610.02,874.068L610.02,909.068L607.37,909.068L607.37,877.968L594.42,899.468L593.97,899.468L581.02,877.968L581.02,909.068L578.37,909.068L578.37,874.068L581.67,874.068L594.17,894.768L606.67,874.068L610.02,874.068Z" style="fill:rgb(4,33,91);fill-rule:nonzero;"></path>
            <path d="M639.22,884.068L641.77,884.068L641.77,909.068L639.22,909.068L639.22,903.418C638.153,905.351 636.687,906.868 634.82,907.968C632.953,909.068 630.837,909.618 628.47,909.618C624.903,909.618 621.853,908.359 619.32,905.843C616.787,903.326 615.52,900.234 615.52,896.568C615.52,892.901 616.787,889.809 619.32,887.293C621.853,884.776 624.903,883.518 628.47,883.518C630.837,883.518 632.953,884.068 634.82,885.168C636.687,886.268 638.153,887.784 639.22,889.718L639.22,884.068ZM621.12,904.118C623.187,906.184 625.703,907.218 628.67,907.218C631.637,907.218 634.137,906.184 636.17,904.118C638.203,902.051 639.22,899.534 639.22,896.568C639.22,893.601 638.203,891.084 636.17,889.018C634.137,886.951 631.637,885.918 628.67,885.918C625.703,885.918 623.195,886.951 621.145,889.018C619.095,891.084 618.07,893.601 618.07,896.568C618.07,899.534 619.087,902.051 621.12,904.118Z" style="fill:rgb(4,33,91);fill-rule:nonzero;"></path>
            <path d="M659.92,883.518C662.887,883.518 665.245,884.426 666.995,886.243C668.745,888.059 669.62,890.484 669.62,893.518L669.62,909.068L667.07,909.068L667.07,893.518C667.07,891.184 666.428,889.334 665.145,887.968C663.862,886.601 662.053,885.918 659.72,885.918C657.153,885.918 655.053,886.768 653.42,888.468C651.787,890.168 650.97,892.634 650.97,895.868L650.97,909.068L648.47,909.068L648.47,884.068L650.97,884.068L650.97,888.818C652.77,885.284 655.753,883.518 659.92,883.518Z" style="fill:rgb(4,33,91);fill-rule:nonzero;"></path>
            <path d="M697.87,884.068L700.37,884.068L700.37,907.868C700.37,911.501 699.187,914.368 696.82,916.468C694.453,918.568 691.487,919.618 687.92,919.618C685.053,919.618 682.603,919.084 680.57,918.018C678.537,916.951 677.053,915.484 676.12,913.618L678.32,912.368C679.92,915.601 683.12,917.218 687.92,917.218C691.02,917.218 693.453,916.376 695.22,914.693C696.987,913.009 697.87,910.734 697.87,907.868L697.87,903.268C696.837,905.234 695.378,906.784 693.495,907.918C691.612,909.051 689.487,909.618 687.12,909.618C683.52,909.618 680.462,908.359 677.945,905.843C675.428,903.326 674.17,900.234 674.17,896.568C674.17,892.901 675.428,889.809 677.945,887.293C680.462,884.776 683.52,883.518 687.12,883.518C689.487,883.518 691.612,884.084 693.495,885.218C695.378,886.351 696.837,887.901 697.87,889.868L697.87,884.068ZM679.72,904.118C681.787,906.184 684.303,907.218 687.27,907.218C690.237,907.218 692.745,906.184 694.795,904.118C696.845,902.051 697.87,899.534 697.87,896.568C697.87,893.601 696.845,891.084 694.795,889.018C692.745,886.951 690.237,885.918 687.27,885.918C684.303,885.918 681.795,886.951 679.745,889.018C677.695,891.084 676.67,893.601 676.67,896.568C676.67,899.534 677.687,902.051 679.72,904.118Z" style="fill:rgb(4,33,91);fill-rule:nonzero;"></path>
            <path d="M718.87,875.918C713.903,875.518 711.42,877.784 711.42,882.718L711.42,884.068L718.87,884.068L718.87,886.518L711.42,886.518L711.42,909.068L708.87,909.068L708.87,886.518L704.57,886.518L704.57,884.068L708.87,884.068L708.87,882.718C708.87,879.584 709.728,877.209 711.445,875.593C713.162,873.976 715.637,873.284 718.87,873.518L718.87,875.918Z" style="fill:rgb(4,33,91);fill-rule:nonzero;"></path>
            <path d="M742.07,884.068L744.62,884.068L744.62,909.068L742.07,909.068L742.07,903.418C741.003,905.351 739.537,906.868 737.67,907.968C735.803,909.068 733.687,909.618 731.32,909.618C727.753,909.618 724.703,908.359 722.17,905.843C719.637,903.326 718.37,900.234 718.37,896.568C718.37,892.901 719.637,889.809 722.17,887.293C724.703,884.776 727.753,883.518 731.32,883.518C733.687,883.518 735.803,884.068 737.67,885.168C739.537,886.268 741.003,887.784 742.07,889.718L742.07,884.068ZM723.97,904.118C726.037,906.184 728.553,907.218 731.52,907.218C734.487,907.218 736.987,906.184 739.02,904.118C741.053,902.051 742.07,899.534 742.07,896.568C742.07,893.601 741.053,891.084 739.02,889.018C736.987,886.951 734.487,885.918 731.52,885.918C728.553,885.918 726.045,886.951 723.995,889.018C721.945,891.084 720.92,893.601 720.92,896.568C720.92,899.534 721.937,902.051 723.97,904.118Z" style="fill:rgb(4,33,91);fill-rule:nonzero;"></path>
            <rect x="751.32" y="872.568" width="2.5" height="36.5" style="fill:rgb(4,33,91);fill-rule:nonzero;"></rect>
            <rect x="760.52" y="872.568" width="2.5" height="36.5" style="fill:rgb(4,33,91);fill-rule:nonzero;"></rect>
        </g>
        <g transform="matrix(2.02833,0,0,2.02833,-629.411,-1737.93)">
            <path d="M600.42,874.068L600.42,880.668L590.97,880.668L590.97,909.068L584.07,909.068L584.07,880.668L574.67,880.668L574.67,874.068L600.42,874.068Z" style="fill:rgb(4,33,91);fill-rule:nonzero;"></path>
            <path d="M603.87,899.218C604.737,902.351 607.087,903.918 610.92,903.918C613.387,903.918 615.253,903.084 616.52,901.418L621.72,904.418C619.253,907.984 615.62,909.768 610.82,909.768C606.687,909.768 603.37,908.518 600.87,906.018C598.37,903.518 597.12,900.368 597.12,896.568C597.12,892.801 598.353,889.659 600.82,887.143C603.287,884.626 606.453,883.368 610.32,883.368C613.987,883.368 617.012,884.634 619.395,887.168C621.778,889.701 622.97,892.834 622.97,896.568C622.97,897.401 622.887,898.284 622.72,899.218L603.87,899.218ZM603.77,894.218L616.52,894.218C616.153,892.518 615.395,891.251 614.245,890.418C613.095,889.584 611.787,889.168 610.32,889.168C608.587,889.168 607.153,889.609 606.02,890.493C604.887,891.376 604.137,892.618 603.77,894.218Z" style="fill:rgb(4,33,91);fill-rule:nonzero;"></path>
            <path d="M638.17,909.768C634.403,909.768 631.262,908.501 628.745,905.968C626.228,903.434 624.97,900.301 624.97,896.568C624.97,892.834 626.228,889.701 628.745,887.168C631.262,884.634 634.403,883.368 638.17,883.368C640.603,883.368 642.82,883.951 644.82,885.118C646.82,886.284 648.337,887.851 649.37,889.818L643.82,893.068C643.32,892.034 642.562,891.218 641.545,890.618C640.528,890.018 639.387,889.718 638.12,889.718C636.187,889.718 634.587,890.359 633.32,891.643C632.053,892.926 631.42,894.568 631.42,896.568C631.42,898.534 632.053,900.159 633.32,901.443C634.587,902.726 636.187,903.368 638.12,903.368C639.42,903.368 640.578,903.076 641.595,902.493C642.612,901.909 643.37,901.101 643.87,900.068L649.47,903.268C648.37,905.234 646.82,906.809 644.82,907.993C642.82,909.176 640.603,909.768 638.17,909.768Z" style="fill:rgb(4,33,91);fill-rule:nonzero;"></path>
            <path d="M665.77,883.368C668.503,883.368 670.762,884.284 672.545,886.118C674.328,887.951 675.22,890.484 675.22,893.718L675.22,909.068L668.77,909.068L668.77,894.518C668.77,892.851 668.32,891.576 667.42,890.693C666.52,889.809 665.32,889.368 663.82,889.368C662.153,889.368 660.82,889.884 659.82,890.918C658.82,891.951 658.32,893.501 658.32,895.568L658.32,909.068L651.87,909.068L651.87,874.068L658.32,874.068L658.32,886.868C659.887,884.534 662.37,883.368 665.77,883.368Z" style="fill:rgb(4,33,91);fill-rule:nonzero;"></path>
        </g>
        <g transform="matrix(0.890725,0,-0.115102,0.890725,-19.3078,-2916.6)">
            <g transform="matrix(1.08614,0,0,1.08614,-97.8372,-161.281)">
                <path d="M585.993,3217.11L585.983,3217.11L585.983,3217.86L585.983,3217.92L585.995,3257.25L585.995,3257.25L586,3274.97C599.015,3275.08 615.333,3275.49 615.8,3257.25L615.81,3257.25L615.81,3256.51L615.81,3256.44L615.799,3217.11L615.798,3217.11L615.793,3199.39C602.778,3199.28 586.461,3198.87 585.993,3217.11Z" style="fill:rgb(0,111,227);"></path>
            </g>
            <g transform="matrix(1.08614,0,0,1.08614,-97.8372,-161.281)">
                <path d="M550.444,3217.11L550.433,3217.11L550.434,3217.86L550.433,3217.92L550.445,3257.25L550.445,3257.25L550.451,3274.97C563.466,3275.08 579.783,3275.49 580.25,3257.25L580.261,3257.25L580.261,3256.51L580.261,3256.44L580.249,3217.11L580.249,3217.11L580.244,3199.39C567.229,3199.28 550.911,3198.87 550.444,3217.11Z" style="fill:rgb(4,33,91);"></path>
            </g>
        </g>
    </g>
</svg>
