<?xml version="1.0" encoding="UTF-8"?>
<svg xmlns="http://www.w3.org/2000/svg" xmlns:xlink="http://www.w3.org/1999/xlink" width="300px" height="150px" viewBox="0 0 300 150" version="1.1">
  <title>Artboard</title>
  <g id="Artboard" stroke="none" stroke-width="1" fill="none" fill-rule="evenodd">
    <g id="Group" transform="translate(89.000000, 16.000000)">
      <polygon id="Combined-Shape" fill="#568995" points="0 0 0 91.4168191 73.8455 91.4168191 104.886122 118 104.788809 91.4168191 123 91.4168191 123 0"></polygon>
      <path d="M47.9752066,60.4870706 C45.9749807,62.6639967 42.0698997,64 38.7075999,64 C28.9004123,64 21,56.4349382 21,45.9993836 C21,35.5670083 28.9004123,28 38.7075999,28 C45.340029,28 51.1442045,31.5589985 54.221032,37.1962964 L45.8764096,39.4205894 C44.2672678,37.4441611 41.3920631,36.2087311 38.7075999,36.2087311 C33.0468006,36.2087311 29.5360041,40.3127723 29.5360041,45.9993836 C29.5360041,52.0798531 33.5851014,55.8873002 39.1921346,55.8873002 C44.658352,55.8873002 47.0464617,53.0219333 48.0257723,50.4479695 L48.0257723,50.4012516 L39.0481184,50.4012516 L39.0481184,43.7257772 L55,43.7257772 L55,63.3057195 L47.9752066,63.3057195 C47.9752066,61.0321132 48.0257723,60.5363839 48.0257723,60.4870706 L47.9752066,60.4870706 Z" id="Fill-2" fill="#FFFFFF"></path>
      <path d="M76.5947966,29 C82.8478739,29 87.1972992,33.0291902 87.1972992,37.9883404 C87.1972992,41.1938699 84.9475287,43.9105498 82.8478739,44.6400051 L82.8478739,44.6400051 L82.8478739,44.6883808 C86.1484551,45.5635999 89,49.2522503 89,52.7042415 C89,58.3871183 85.1448425,63 76.4912232,63 L76.4912232,63 L70.2355238,63 L70.2355238,62.9783582 L62,62.9783582 L62,29 Z M75.6626364,48.5017898 L70.3928504,48.5017898 L70.3928504,56.1777472 L75.6626364,56.1777472 C78.460428,56.1777472 80.2119976,54.5705267 80.2119976,52.3369678 C80.2119976,49.9575177 78.3090011,48.5017898 75.6626364,48.5017898 L75.6626364,48.5017898 Z M74.8609262,35.8731747 L70.3928504,35.8731747 L70.3928504,42.2848702 L74.8609262,42.2848702 C77.1080746,42.2848702 78.7639372,40.9233477 78.7639372,39.0787042 C78.7639372,37.2346972 77.1080746,35.8731747 74.8609262,35.8731747 L74.8609262,35.8731747 Z" id="Combined-Shape" fill="#FFFFFF"></path>
      <polygon id="Fill-6" fill="#FFFFFF" points="96 65 105 65 105 56 96 56"></polygon>
    </g>
  </g>
</svg>
